<?xml version="1.0" encoding="utf-8"?>
<!-- Generator: Adobe Illustrator 26.2.1, SVG Export Plug-In . SVG Version: 6.00 Build 0)  -->
<svg version="1.1" id="圖層_1" xmlns="http://www.w3.org/2000/svg" xmlns:xlink="http://www.w3.org/1999/xlink" x="0px" y="0px"
	 viewBox="0 0 149.5 36.4" style="enable-background:new 0 0 149.5 36.4;" xml:space="preserve">
<style type="text/css">
	.st0{fill:#B9DC26;}
	.st1{fill:#FFA826;}
	.st2{fill:#FF7026;}
	.st3{fill:#FF378F;}
</style>
<g>
	<circle cx="17.2" cy="13.8" r="2.2"/>
	<path class="st0" d="M5.2,6.9H1.8C1,6.9,0.3,6.3,0.3,5.5V2.1c0-0.8,0.6-1.4,1.4-1.4h3.4c0.8,0,1.4,0.6,1.4,1.4v3.4
		C6.6,6.3,6,6.9,5.2,6.9z"/>
	<path class="st1" d="M5.4,15.7H1.5c-0.7,0-1.2-0.5-1.2-1.2v-3.9c0-0.7,0.5-1.2,1.2-1.2h3.9c0.7,0,1.2,0.5,1.2,1.2v3.9
		C6.6,15.2,6.1,15.7,5.4,15.7z"/>
	<path class="st2" d="M5.4,23.1H1.5c-0.7,0-1.2-0.5-1.2-1.2V18c0-0.7,0.5-1.2,1.2-1.2h3.9c0.7,0,1.2,0.5,1.2,1.2v3.9
		C6.6,22.6,6.1,23.1,5.4,23.1z"/>
	<path class="st3" d="M5.4,30.5H1.5c-0.7,0-1.2-0.5-1.2-1.2v-3.9c0-0.7,0.5-1.2,1.2-1.2h3.9c0.7,0,1.2,0.5,1.2,1.2v3.9
		C6.6,29.9,6.1,30.5,5.4,30.5z"/>
	<path d="M35.1,11.6v15c0,1.5,0.1,3,0.1,3.9h-3.6l-0.2-1.9h-0.1c-0.8,1.5-2.4,2.2-4.1,2.2c-3.1,0-5.6-2.6-5.6-6.7
		c0-4.4,2.7-6.9,5.8-6.9c1.6,0,2.8,0.6,3.4,1.5H31v-7H35.1z M31,23c0-0.2,0-0.5-0.1-0.7c-0.2-1.1-1.1-2-2.3-2
		c-1.9,0-2.8,1.6-2.8,3.7c0,2.2,1.1,3.6,2.8,3.6c1.2,0,2.1-0.8,2.3-1.9C31,25.3,31,25,31,24.7V23z"/>
	<path d="M41.4,25.3c0.1,1.7,1.8,2.5,3.7,2.5c1.4,0,2.5-0.2,3.6-0.6l0.5,2.7c-1.3,0.5-3,0.8-4.7,0.8c-4.4,0-6.9-2.6-6.9-6.6
		c0-3.3,2.1-7,6.6-7c4.2,0,5.8,3.3,5.8,6.5c0,0.7-0.1,1.3-0.1,1.6H41.4z M46.2,22.5c0-1-0.4-2.6-2.3-2.6c-1.7,0-2.4,1.6-2.5,2.6
		H46.2z"/>
	<path d="M59.8,30.5l-0.2-1.3h-0.1c-0.8,1-2.2,1.6-3.7,1.6c-2.7,0-4.2-1.9-4.2-4c0-3.4,3-5,7.6-5v-0.2c0-0.7-0.4-1.7-2.4-1.7
		c-1.3,0-2.7,0.5-3.6,1l-0.7-2.6c0.9-0.5,2.7-1.2,5.1-1.2c4.3,0,5.7,2.6,5.7,5.6v4.5c0,1.2,0.1,2.4,0.2,3.2H59.8z M59.3,24.3
		c-2.1,0-3.8,0.5-3.8,2.1c0,1,0.7,1.6,1.6,1.6c1,0,1.8-0.7,2.1-1.5c0.1-0.2,0.1-0.5,0.1-0.7V24.3z"/>
	<path d="M88,25.3c0.1,1.7,1.8,2.5,3.7,2.5c1.4,0,2.5-0.2,3.6-0.6l0.5,2.7c-1.3,0.5-3,0.8-4.7,0.8c-4.4,0-6.9-2.6-6.9-6.6
		c0-3.3,2.1-7,6.6-7c4.2,0,5.8,3.3,5.8,6.5c0,0.7-0.1,1.3-0.1,1.6H88z M92.8,22.5c0-1-0.4-2.6-2.3-2.6c-1.7,0-2.4,1.6-2.5,2.6H92.8z
		"/>
	<path d="M98.9,21.8c0-1.7-0.1-3.2-0.1-4.4h3.5l0.2,1.8h0.1c1-1.4,2.4-2.1,4.3-2.1c2.8,0,5.4,2.5,5.4,6.6c0,4.7-3,7-5.9,7
		c-1.6,0-2.8-0.6-3.4-1.5H103v6.5h-4V21.8z M103,24.9c0,0.3,0,0.6,0.1,0.8c0.3,1.1,1.2,1.9,2.4,1.9c1.7,0,2.8-1.5,2.8-3.7
		c0-2.1-0.9-3.7-2.7-3.7c-1.1,0-2.2,0.9-2.4,2c-0.1,0.2-0.1,0.5-0.1,0.7V24.9z"/>
	<path d="M127.8,23.8c0,4.8-3.4,6.9-6.9,6.9c-3.8,0-6.7-2.5-6.7-6.7c0-4.2,2.8-6.9,7-6.9C125.1,17.2,127.8,19.9,127.8,23.8z
		 M118.4,24c0,2.2,0.9,3.9,2.7,3.9c1.6,0,2.6-1.6,2.6-3.9c0-1.9-0.7-3.9-2.6-3.9C119.1,20,118.4,22,118.4,24z"/>
	<path d="M134.8,13.7v3.7h2.9v3h-2.9v4.7c0,1.6,0.4,2.3,1.6,2.3c0.5,0,0.9-0.1,1.2-0.1l0,3.1c-0.5,0.2-1.5,0.3-2.6,0.3
		c-1.3,0-2.4-0.5-3.1-1.1c-0.8-0.8-1.1-2-1.1-3.9v-5.3h-1.7v-3h1.7v-2.8L134.8,13.7z"/>
	<path d="M140,26.9c0.7,0.5,2.3,1,3.5,1c1.2,0,1.7-0.4,1.7-1.1c0-0.7-0.4-1-1.9-1.5c-2.7-0.9-3.7-2.4-3.7-3.9c0-2.4,2.1-4.3,5.3-4.3
		c1.5,0,2.9,0.4,3.7,0.8l-0.7,2.8c-0.6-0.3-1.7-0.7-2.8-0.7c-1,0-1.6,0.4-1.6,1c0,0.6,0.5,1,2.1,1.5c2.5,0.8,3.5,2.1,3.5,4
		c0,2.4-1.9,4.2-5.6,4.2c-1.7,0-3.2-0.4-4.2-0.9L140,26.9z"/>
	<path d="M72.9,12.1h-2.1c-0.1,0-0.2,0-0.3,0v0h-4v1.1v2.5v11.3v2.5v1.1h4v0c0.1,0,0.2,0,0.3,0h2.1c5.1,0,9.2-4.1,9.2-9.2v0
		C82.1,16.2,78,12.1,72.9,12.1z M78.1,21.5c0,3.2-2.6,5.9-5.9,5.9h-1.7V15.2h1.7c3.2,0,5.9,2.6,5.9,5.9V21.5z"/>
	<path d="M18.5,17.4h-2.5c-0.4,0-0.8,0.3-0.8,0.8v11.5c0,0.4,0.3,0.8,0.8,0.8h2.5c0.4,0,0.8-0.3,0.8-0.8V18.2
		C19.2,17.8,18.9,17.4,18.5,17.4z"/>
</g>
</svg>
