<?xml version="1.0" encoding="utf-8"?>
<!-- Generator: Adobe Illustrator 26.2.1, SVG Export Plug-In . SVG Version: 6.00 Build 0)  -->
<svg version="1.1" xmlns="http://www.w3.org/2000/svg" xmlns:xlink="http://www.w3.org/1999/xlink" x="0px" y="0px"
	 viewBox="0 0 4800 3200" style="enable-background:new 0 0 4800 3200;" xml:space="preserve">
<style type="text/css">
	.st0{fill:url(#SVGID_1_);}
	.st1{opacity:0.7;clip-path:url(#SVGID_00000033357021741169032840000018235715872631512215_);}
	.st2{fill:url(#SVGID_00000107561243728173278220000000651849893163729801_);}
	.st3{fill:url(#SVGID_00000178199077997913874260000017278914954338407605_);}
	.st4{fill:url(#SVGID_00000038377244659959076360000008365714841807188414_);}
	.st5{fill:url(#SVGID_00000093880658763389291320000005481921708212800653_);}
	.st6{fill:url(#SVGID_00000090975044563022045940000014171633750933297068_);}
	.st7{fill:url(#SVGID_00000028298874016602910300000013674856482709357501_);}
	.st8{fill:url(#SVGID_00000065792791738921193290000009520052757896959879_);}
	.st9{fill:url(#SVGID_00000076578818397626324080000007638347485068647862_);}
	.st10{fill:url(#SVGID_00000012469291005896371770000016425843256719266721_);}
	.st11{fill:url(#SVGID_00000103234000438135184240000001997324905738393004_);}
	.st12{opacity:0.5;clip-path:url(#SVGID_00000033357021741169032840000018235715872631512215_);}
	.st13{fill:url(#SVGID_00000172405619061810908400000012205431411348931729_);}
	.st14{fill:url(#SVGID_00000050629747072611112440000014234885843335867533_);}
	.st15{fill:url(#SVGID_00000119079486695318726310000001418328170145064586_);}
	.st16{fill:url(#SVGID_00000052796450535058614920000013984106681459654323_);}
	.st17{fill:url(#SVGID_00000072988109407956766980000006866415462237621672_);}
	.st18{fill:url(#SVGID_00000057115116120727421680000016409857680146983821_);}
	.st19{fill:url(#SVGID_00000168833130734824070730000003887822663274271371_);}
	.st20{fill:url(#SVGID_00000175321485258321080150000000974262221935864225_);}
	.st21{fill:url(#SVGID_00000081621439141307191150000008360561358110058683_);}
	.st22{fill:url(#SVGID_00000030478963134981938380000011744203557695346830_);}
	
		.st23{clip-path:url(#SVGID_00000033357021741169032840000018235715872631512215_);fill:none;stroke:#FFFFFF;stroke-width:10;stroke-linecap:round;stroke-linejoin:round;stroke-miterlimit:10;}
	.st24{clip-path:url(#SVGID_00000033357021741169032840000018235715872631512215_);}
	.st25{fill:none;stroke:#FFFFFF;stroke-width:10;stroke-linecap:round;stroke-linejoin:round;stroke-miterlimit:10;}
	.st26{fill:#FFFFFF;}
	.st27{clip-path:url(#SVGID_00000083047756642192601900000008828837505199655097_);}
	.st28{fill:none;stroke:#FFFFFF;stroke-width:5;stroke-linecap:round;stroke-linejoin:round;stroke-miterlimit:10;}
	.st29{fill:none;stroke:#FFFFFF;stroke-width:5.1613;stroke-linecap:round;stroke-linejoin:round;stroke-miterlimit:10;}
	.st30{fill:none;stroke:#FFFFFF;stroke-width:5.3226;stroke-linecap:round;stroke-linejoin:round;stroke-miterlimit:10;}
	.st31{fill:none;stroke:#FFFFFF;stroke-width:5.4839;stroke-linecap:round;stroke-linejoin:round;stroke-miterlimit:10;}
	.st32{fill:none;stroke:#FFFFFF;stroke-width:5.6452;stroke-linecap:round;stroke-linejoin:round;stroke-miterlimit:10;}
	.st33{fill:none;stroke:#FFFFFF;stroke-width:5.8064;stroke-linecap:round;stroke-linejoin:round;stroke-miterlimit:10;}
	.st34{fill:none;stroke:#FFFFFF;stroke-width:5.9677;stroke-linecap:round;stroke-linejoin:round;stroke-miterlimit:10;}
	.st35{fill:none;stroke:#FFFFFF;stroke-width:6.129;stroke-linecap:round;stroke-linejoin:round;stroke-miterlimit:10;}
	.st36{fill:none;stroke:#FFFFFF;stroke-width:6.2903;stroke-linecap:round;stroke-linejoin:round;stroke-miterlimit:10;}
	.st37{fill:none;stroke:#FFFFFF;stroke-width:6.4516;stroke-linecap:round;stroke-linejoin:round;stroke-miterlimit:10;}
	.st38{fill:none;stroke:#FFFFFF;stroke-width:6.6129;stroke-linecap:round;stroke-linejoin:round;stroke-miterlimit:10;}
	.st39{fill:none;stroke:#FFFFFF;stroke-width:6.7742;stroke-linecap:round;stroke-linejoin:round;stroke-miterlimit:10;}
	.st40{fill:none;stroke:#FFFFFF;stroke-width:6.9355;stroke-linecap:round;stroke-linejoin:round;stroke-miterlimit:10;}
	.st41{fill:none;stroke:#FFFFFF;stroke-width:7.0968;stroke-linecap:round;stroke-linejoin:round;stroke-miterlimit:10;}
	.st42{fill:none;stroke:#FFFFFF;stroke-width:7.2581;stroke-linecap:round;stroke-linejoin:round;stroke-miterlimit:10;}
	.st43{fill:none;stroke:#FFFFFF;stroke-width:7.4194;stroke-linecap:round;stroke-linejoin:round;stroke-miterlimit:10;}
	.st44{fill:none;stroke:#FFFFFF;stroke-width:7.5806;stroke-linecap:round;stroke-linejoin:round;stroke-miterlimit:10;}
	.st45{fill:none;stroke:#FFFFFF;stroke-width:7.7419;stroke-linecap:round;stroke-linejoin:round;stroke-miterlimit:10;}
	.st46{fill:none;stroke:#FFFFFF;stroke-width:7.9032;stroke-linecap:round;stroke-linejoin:round;stroke-miterlimit:10;}
	.st47{fill:none;stroke:#FFFFFF;stroke-width:8.0645;stroke-linecap:round;stroke-linejoin:round;stroke-miterlimit:10;}
	.st48{fill:none;stroke:#FFFFFF;stroke-width:8.2258;stroke-linecap:round;stroke-linejoin:round;stroke-miterlimit:10;}
	.st49{fill:none;stroke:#FFFFFF;stroke-width:8.3871;stroke-linecap:round;stroke-linejoin:round;stroke-miterlimit:10;}
	.st50{fill:none;stroke:#FFFFFF;stroke-width:8.5484;stroke-linecap:round;stroke-linejoin:round;stroke-miterlimit:10;}
	.st51{fill:none;stroke:#FFFFFF;stroke-width:8.7097;stroke-linecap:round;stroke-linejoin:round;stroke-miterlimit:10;}
	.st52{fill:none;stroke:#FFFFFF;stroke-width:8.871;stroke-linecap:round;stroke-linejoin:round;stroke-miterlimit:10;}
	.st53{fill:none;stroke:#FFFFFF;stroke-width:9.0323;stroke-linecap:round;stroke-linejoin:round;stroke-miterlimit:10;}
	.st54{fill:none;stroke:#FFFFFF;stroke-width:9.1936;stroke-linecap:round;stroke-linejoin:round;stroke-miterlimit:10;}
	.st55{fill:none;stroke:#FFFFFF;stroke-width:9.3548;stroke-linecap:round;stroke-linejoin:round;stroke-miterlimit:10;}
	.st56{fill:none;stroke:#FFFFFF;stroke-width:9.5161;stroke-linecap:round;stroke-linejoin:round;stroke-miterlimit:10;}
	.st57{fill:none;stroke:#FFFFFF;stroke-width:9.6774;stroke-linecap:round;stroke-linejoin:round;stroke-miterlimit:10;}
	.st58{fill:none;stroke:#FFFFFF;stroke-width:9.8387;stroke-linecap:round;stroke-linejoin:round;stroke-miterlimit:10;}
	.st59{clip-path:url(#SVGID_00000082329223399421210340000006303727547781234340_);}
	.st60{clip-path:url(#SVGID_00000084501544772331782240000011201740758426492836_);}
	.st61{clip-path:url(#SVGID_00000014612393544837114540000015217156455763777168_);}
	.st62{fill:#808080;}
	.st63{fill:#999999;}
	.st64{fill:none;stroke:#FFFFFF;stroke-width:20;stroke-miterlimit:10;}
</style>
<g id="bg">
	<radialGradient id="SVGID_1_" cx="2400" cy="1600" r="2039.6078" gradientUnits="userSpaceOnUse">
		<stop  offset="0" style="stop-color:#F9F9F9"/>
		<stop  offset="1" style="stop-color:#D3D3D3"/>
	</radialGradient>
	<rect class="st0" width="4800" height="3200"/>
</g>
<g id="object1">
</g>
<g id="object2">
	<g>
		<defs>
			<rect id="SVGID_00000143580816683783214960000012198724185653768577_" width="4800" height="3200"/>
		</defs>
		<clipPath id="SVGID_00000138575464390134449560000005250654658760973452_">
			<use xlink:href="#SVGID_00000143580816683783214960000012198724185653768577_"  style="overflow:visible;"/>
		</clipPath>
		<g style="opacity:0.7;clip-path:url(#SVGID_00000138575464390134449560000005250654658760973452_);">
			
				<linearGradient id="SVGID_00000016782865448891471710000009574806332566485158_" gradientUnits="userSpaceOnUse" x1="-614.6284" y1="817.8718" x2="-3493.0837" y2="1384.9713" gradientTransform="matrix(-1 0 0 1 1671.2563 0)">
				<stop  offset="0" style="stop-color:#F9F9F9"/>
				<stop  offset="1" style="stop-color:#D3D3D3"/>
			</linearGradient>
			<polygon style="fill:url(#SVGID_00000016782865448891471710000009574806332566485158_);" points="2683.75,0 4800,1741.97 
				4800,2209.45 2406.02,0 			"/>
			
				<linearGradient id="SVGID_00000101804182476882763620000003505228188108082078_" gradientUnits="userSpaceOnUse" x1="-1065.7286" y1="1916.4945" x2="-2426.3164" y2="857.1035" gradientTransform="matrix(-1 0 0 1 1671.2563 0)">
				<stop  offset="0" style="stop-color:#F9F9F9"/>
				<stop  offset="1" style="stop-color:#D3D3D3"/>
			</linearGradient>
			<polygon style="fill:url(#SVGID_00000101804182476882763620000003505228188108082078_);" points="2406.02,0 4800,2209.45 
				4800,2695.94 2134.3,0 			"/>
			
				<linearGradient id="SVGID_00000099619633376305503460000000223390144181255058_" gradientUnits="userSpaceOnUse" x1="-88.4678" y1="1376.9131" x2="-3000.2266" y2="1755.9579" gradientTransform="matrix(-1 0 0 1 1671.2563 0)">
				<stop  offset="0" style="stop-color:#F9F9F9"/>
				<stop  offset="1" style="stop-color:#D3D3D3"/>
			</linearGradient>
			<polygon style="fill:url(#SVGID_00000099619633376305503460000000223390144181255058_);" points="2134.3,0 4800,2695.94 
				4800,3198.36 1866.38,0 			"/>
			
				<linearGradient id="SVGID_00000011742850237326046360000009806775777578388385_" gradientUnits="userSpaceOnUse" x1="-817.7609" y1="333.7393" x2="-3617.1206" y2="902.2222" gradientTransform="matrix(-1 0 0 1 1671.2563 0)">
				<stop  offset="0" style="stop-color:#F9F9F9"/>
				<stop  offset="1" style="stop-color:#D3D3D3"/>
			</linearGradient>
			<polygon style="fill:url(#SVGID_00000011742850237326046360000009806775777578388385_);" points="3279.95,0 4800,880.83 
				4800,1297.4 2971.8,0 			"/>
			
				<linearGradient id="SVGID_00000038406502447960322970000012495721235117088440_" gradientUnits="userSpaceOnUse" x1="-1130.1215" y1="721.2681" x2="-3693.679" y2="1075.1581" gradientTransform="matrix(-1 0 0 1 1671.2563 0)">
				<stop  offset="0" style="stop-color:#F9F9F9"/>
				<stop  offset="1" style="stop-color:#D3D3D3"/>
			</linearGradient>
			<polygon style="fill:url(#SVGID_00000038406502447960322970000012495721235117088440_);" points="2971.8,0 4800,1297.4 
				4800,1741.97 2683.75,0 			"/>
			
				<linearGradient id="SVGID_00000046310757737449956010000015807495338315576462_" gradientUnits="userSpaceOnUse" x1="-284.4482" y1="1761.3845" x2="-3135.8889" y2="1372.9502" gradientTransform="matrix(-1 0 0 1 1671.2563 0)">
				<stop  offset="0" style="stop-color:#F9F9F9"/>
				<stop  offset="1" style="stop-color:#D3D3D3"/>
			</linearGradient>
			<polygon style="fill:url(#SVGID_00000046310757737449956010000015807495338315576462_);" points="1866.38,0 4800,3198.36 
				4800,3200 4145.93,3200 1480.8,0 			"/>
			
				<linearGradient id="SVGID_00000033367602049458804650000008574707436768541607_" gradientUnits="userSpaceOnUse" x1="1968.8846" y1="562.8038" x2="-1740.7135" y2="3523.8298" gradientTransform="matrix(-1 0 0 1 1671.2563 0)">
				<stop  offset="0" style="stop-color:#F9F9F9"/>
				<stop  offset="1" style="stop-color:#D3D3D3"/>
			</linearGradient>
			<polygon style="fill:url(#SVGID_00000033367602049458804650000008574707436768541607_);" points="361.37,0 2251.1,3200 
				1642.19,3200 0,0 			"/>
			
				<linearGradient id="SVGID_00000005241968708279248760000010472401871991226807_" gradientUnits="userSpaceOnUse" x1="824.2318" y1="507.5553" x2="-2629.4741" y2="2801.6184" gradientTransform="matrix(-1 0 0 1 1671.2563 0)">
				<stop  offset="0" style="stop-color:#F9F9F9"/>
				<stop  offset="1" style="stop-color:#D3D3D3"/>
			</linearGradient>
			<polygon style="fill:url(#SVGID_00000005241968708279248760000010472401871991226807_);" points="1480.8,0 4145.93,3200 
				3502.59,3200 1101.57,0 			"/>
			
				<linearGradient id="SVGID_00000035494746360027232130000009470511546737460136_" gradientUnits="userSpaceOnUse" x1="845.4426" y1="1396.6404" x2="-1457.5013" y2="2101.9695" gradientTransform="matrix(-1 0 0 1 1671.2563 0)">
				<stop  offset="0" style="stop-color:#F9F9F9"/>
				<stop  offset="1" style="stop-color:#D3D3D3"/>
			</linearGradient>
			<polygon style="fill:url(#SVGID_00000035494746360027232130000009470511546737460136_);" points="728.5,0 2871.11,3200 
				2251.1,3200 361.37,0 			"/>
			
				<linearGradient id="SVGID_00000134930953835047777090000010608873492936673931_" gradientUnits="userSpaceOnUse" x1="295.2042" y1="1333.319" x2="-1717.847" y2="2212.9709" gradientTransform="matrix(-1 0 0 1 1671.2563 0)">
				<stop  offset="0" style="stop-color:#F9F9F9"/>
				<stop  offset="1" style="stop-color:#D3D3D3"/>
			</linearGradient>
			<polygon style="fill:url(#SVGID_00000134930953835047777090000010608873492936673931_);" points="1101.57,0 3502.59,3200 
				2871.11,3200 728.5,0 			"/>
		</g>
		<g style="opacity:0.5;clip-path:url(#SVGID_00000138575464390134449560000005250654658760973452_);">
			
				<linearGradient id="SVGID_00000007419852362722106000000006839542082558586501_" gradientUnits="userSpaceOnUse" x1="-1219.4304" y1="729.6277" x2="328.2608" y2="-1609.9027" gradientTransform="matrix(1 0 0 1 8.000000e-04 1498.8007)">
				<stop  offset="0" style="stop-color:#F9F9F9"/>
				<stop  offset="1" style="stop-color:#D3D3D3"/>
			</linearGradient>
			<path style="fill:url(#SVGID_00000007419852362722106000000006839542082558586501_);" d="M2400,22.75
				C2400,1363.61,1313.02,2450.6-27.85,2450.6c-1162.57,0-2134.29-817.14-2372.15-1908.39V16.6
				c237.86,1091.25,1209.58,1908.39,2372.15,1908.39c1168.46,0,2144.13-825.43,2375.7-1924.99h52.05
				C2399.97,7.57,2400,15.16,2400,22.75z"/>
			
				<linearGradient id="SVGID_00000067219255240265161440000002360785245260960666_" gradientUnits="userSpaceOnUse" x1="-683.6303" y1="390.1041" x2="-239.718" y2="-863.6465" gradientTransform="matrix(1 0 0 1 8.000000e-04 1498.8007)">
				<stop  offset="0" style="stop-color:#F9F9F9"/>
				<stop  offset="1" style="stop-color:#D3D3D3"/>
			</linearGradient>
			<path style="fill:url(#SVGID_00000067219255240265161440000002360785245260960666_);" d="M2347.85,0
				C2116.28,1099.56,1140.61,1924.99-27.85,1924.99c-1162.57,0-2134.29-817.14-2372.15-1908.39V0h172.26
				c387.18,826.73,1226.66,1399.38,2199.89,1399.38c973.24,0,1812.72-572.65,2199.89-1399.38H2347.85z"/>
			
				<linearGradient id="SVGID_00000147217232236970542080000002777178888733618848_" gradientUnits="userSpaceOnUse" x1="-426.252" y1="-150.8752" x2="-66.3246" y2="-1368.6309" gradientTransform="matrix(1 0 0 1 8.000000e-04 1498.8007)">
				<stop  offset="0" style="stop-color:#F9F9F9"/>
				<stop  offset="1" style="stop-color:#D3D3D3"/>
			</linearGradient>
			<path style="fill:url(#SVGID_00000147217232236970542080000002777178888733618848_);" d="M2172.04,0
				C1784.87,826.73,945.39,1399.38-27.85,1399.38c-973.23,0-1812.71-572.65-2199.89-1399.38h334.54
				C-1447.85,533.97-777.53,873.76-27.85,873.76C721.84,873.76,1392.16,533.97,1837.5,0H2172.04z"/>
			
				<linearGradient id="SVGID_00000011011476804437463410000013386573928265202104_" gradientUnits="userSpaceOnUse" x1="-292.6082" y1="-553.2354" x2="-82.651" y2="-1303.085" gradientTransform="matrix(1 0 0 1 8.000000e-04 1498.8007)">
				<stop  offset="0" style="stop-color:#F9F9F9"/>
				<stop  offset="1" style="stop-color:#D3D3D3"/>
			</linearGradient>
			<path style="fill:url(#SVGID_00000011011476804437463410000013386573928265202104_);" d="M1837.5,0
				C1392.16,533.97,721.84,873.76-27.85,873.76c-749.68,0-1420-339.79-1865.35-873.76h611.95
				c365.88,220.99,794.79,348.15,1253.4,348.15S859.68,220.99,1225.56,0H1837.5z"/>
			
				<linearGradient id="SVGID_00000063605485044653814230000016589967498402422951_" gradientUnits="userSpaceOnUse" x1="-27.8458" y1="-1011.2162" x2="-27.8458" y2="-1749.0679" gradientTransform="matrix(1 0 0 1 8.000000e-04 1498.8007)">
				<stop  offset="0" style="stop-color:#F9F9F9"/>
				<stop  offset="1" style="stop-color:#D3D3D3"/>
			</linearGradient>
			<path style="fill:url(#SVGID_00000063605485044653814230000016589967498402422951_);" d="M1225.56,0
				C859.68,220.99,430.76,348.15-27.85,348.15S-915.37,220.99-1281.25,0H1225.56z"/>
		</g>
		<g style="opacity:0.5;clip-path:url(#SVGID_00000138575464390134449560000005250654658760973452_);">
			
				<linearGradient id="SVGID_00000109725684825532663320000000567990251238364586_" gradientUnits="userSpaceOnUse" x1="-194.132" y1="-677.073" x2="1353.5592" y2="-3016.6035" gradientTransform="matrix(0 -1 1 0 2905.5012 3425.2976)">
				<stop  offset="0" style="stop-color:#F9F9F9"/>
				<stop  offset="1" style="stop-color:#D3D3D3"/>
			</linearGradient>
			<path style="fill:url(#SVGID_00000109725684825532663320000000567990251238364586_);" d="M22.75,0
				C1363.61,0,2450.6,1086.98,2450.6,2427.85c0,1162.57-817.14,2134.29-1908.39,2372.15H16.6
				c1091.25-237.86,1908.39-1209.58,1908.39-2372.15C1924.99,1259.39,1099.56,283.72,0,52.15V0.1C7.57,0.03,15.16,0,22.75,0z"/>
			
				<linearGradient id="SVGID_00000087408491614944182640000002591654562479877055_" gradientUnits="userSpaceOnUse" x1="341.6681" y1="-1016.5966" x2="785.5804" y2="-2270.3472" gradientTransform="matrix(0 -1 1 0 2905.5012 3425.2976)">
				<stop  offset="0" style="stop-color:#F9F9F9"/>
				<stop  offset="1" style="stop-color:#D3D3D3"/>
			</linearGradient>
			<path style="fill:url(#SVGID_00000087408491614944182640000002591654562479877055_);" d="M0,52.15
				c1099.56,231.57,1924.99,1207.24,1924.99,2375.7c0,1162.57-817.14,2134.29-1908.39,2372.15H0v-172.26
				c826.73-387.18,1399.38-1226.66,1399.38-2199.89C1399.38,1454.61,826.73,615.13,0,227.96V52.15z"/>
			
				<linearGradient id="SVGID_00000088091538611739703920000002877556571981336244_" gradientUnits="userSpaceOnUse" x1="599.0464" y1="-1557.5759" x2="958.9738" y2="-2775.3315" gradientTransform="matrix(0 -1 1 0 2905.5012 3425.2976)">
				<stop  offset="0" style="stop-color:#F9F9F9"/>
				<stop  offset="1" style="stop-color:#D3D3D3"/>
			</linearGradient>
			<path style="fill:url(#SVGID_00000088091538611739703920000002877556571981336244_);" d="M0,227.96
				c826.73,387.17,1399.38,1226.65,1399.38,2199.89c0,973.23-572.65,1812.71-1399.38,2199.89V4293.2
				c533.97-445.35,873.76-1115.67,873.76-1865.35C873.76,1678.16,533.97,1007.84,0,562.5V227.96z"/>
			
				<linearGradient id="SVGID_00000174594284185318237410000011774776035691988671_" gradientUnits="userSpaceOnUse" x1="732.6902" y1="-1959.9362" x2="942.6474" y2="-2709.7856" gradientTransform="matrix(0 -1 1 0 2905.5012 3425.2976)">
				<stop  offset="0" style="stop-color:#F9F9F9"/>
				<stop  offset="1" style="stop-color:#D3D3D3"/>
			</linearGradient>
			<path style="fill:url(#SVGID_00000174594284185318237410000011774776035691988671_);" d="M0,562.5
				c533.97,445.34,873.76,1115.66,873.76,1865.35c0,749.68-339.79,1420-873.76,1865.35v-611.95
				c220.99-365.88,348.15-794.79,348.15-1253.4S220.99,1540.32,0,1174.44V562.5z"/>
			
				<linearGradient id="SVGID_00000021823031818639778590000007044130009615545791_" gradientUnits="userSpaceOnUse" x1="997.4526" y1="-2417.917" x2="997.4526" y2="-3155.7686" gradientTransform="matrix(0 -1 1 0 2905.5012 3425.2976)">
				<stop  offset="0" style="stop-color:#F9F9F9"/>
				<stop  offset="1" style="stop-color:#D3D3D3"/>
			</linearGradient>
			<path style="fill:url(#SVGID_00000021823031818639778590000007044130009615545791_);" d="M0,1174.44
				c220.99,365.88,348.15,794.8,348.15,1253.41S220.99,3315.37,0,3681.25V1174.44z"/>
		</g>
		
			<ellipse transform="matrix(0.9925 -0.1222 0.1222 0.9925 -133.0448 387.1417)" style="clip-path:url(#SVGID_00000138575464390134449560000005250654658760973452_);fill:none;stroke:#FFFFFF;stroke-width:10;stroke-linecap:round;stroke-linejoin:round;stroke-miterlimit:10;" cx="3090.11" cy="1278.38" rx="34.89" ry="34.89"/>
		
			<path style="clip-path:url(#SVGID_00000138575464390134449560000005250654658760973452_);fill:none;stroke:#FFFFFF;stroke-width:10;stroke-linecap:round;stroke-linejoin:round;stroke-miterlimit:10;" d="
			M4145.6,1337.01c0,16.19-13.13,29.32-29.32,29.32c-16.19,0-29.32-13.13-29.32-29.32c0-16.19,13.13-29.32,29.32-29.32
			C4132.48,1307.69,4145.6,1320.82,4145.6,1337.01z"/>
		
			<path style="clip-path:url(#SVGID_00000138575464390134449560000005250654658760973452_);fill:none;stroke:#FFFFFF;stroke-width:10;stroke-linecap:round;stroke-linejoin:round;stroke-miterlimit:10;" d="
			M1353.34,529c0,16.19-13.13,29.32-29.32,29.32c-16.19,0-29.32-13.13-29.32-29.32c0-16.19,13.13-29.32,29.32-29.32
			C1340.21,499.68,1353.34,512.81,1353.34,529z"/>
		
			<path style="clip-path:url(#SVGID_00000138575464390134449560000005250654658760973452_);fill:none;stroke:#FFFFFF;stroke-width:10;stroke-linecap:round;stroke-linejoin:round;stroke-miterlimit:10;" d="
			M4151.18,1900.97c0,19.27-15.62,34.9-34.9,34.9c-19.27,0-34.89-15.62-34.89-34.9c0-19.27,15.62-34.89,34.89-34.89
			C4135.56,1866.08,4151.18,1881.7,4151.18,1900.97z"/>
		
			<path style="clip-path:url(#SVGID_00000138575464390134449560000005250654658760973452_);fill:none;stroke:#FFFFFF;stroke-width:10;stroke-linecap:round;stroke-linejoin:round;stroke-miterlimit:10;" d="
			M1563.01,2708.03c0,19.27-15.62,34.89-34.9,34.89c-19.27,0-34.89-15.62-34.89-34.89c0-19.27,15.62-34.89,34.89-34.89
			C1547.39,2673.13,1563.01,2688.75,1563.01,2708.03z"/>
		
			<ellipse transform="matrix(0.9871 -0.1602 0.1602 0.9871 -388.4766 596.9548)" style="clip-path:url(#SVGID_00000138575464390134449560000005250654658760973452_);fill:none;stroke:#FFFFFF;stroke-width:10;stroke-linecap:round;stroke-linejoin:round;stroke-miterlimit:10;" cx="3508.41" cy="2708.03" rx="34.89" ry="34.89"/>
		
			<path style="clip-path:url(#SVGID_00000138575464390134449560000005250654658760973452_);fill:none;stroke:#FFFFFF;stroke-width:10;stroke-linecap:round;stroke-linejoin:round;stroke-miterlimit:10;" d="
			M3308.32,1075.38c23.59,0,23.59,34.98,47.18,34.98s23.59-34.98,47.18-34.98c23.6,0,23.6,34.98,47.19,34.98
			c23.6,0,23.6-34.98,47.21-34.98c23.6,0,23.6,34.98,47.19,34.98c23.61,0,23.61-34.98,47.22-34.98s23.61,34.98,47.22,34.98"/>
		
			<path style="clip-path:url(#SVGID_00000138575464390134449560000005250654658760973452_);fill:none;stroke:#FFFFFF;stroke-width:10;stroke-linecap:round;stroke-linejoin:round;stroke-miterlimit:10;" d="
			M683.6,246.02c23.59,0,23.59,34.98,47.18,34.98c23.59,0,23.59-34.98,47.18-34.98c23.6,0,23.6,34.98,47.19,34.98
			c23.6,0,23.6-34.98,47.21-34.98c23.6,0,23.6,34.98,47.19,34.98c23.61,0,23.61-34.98,47.22-34.98c23.61,0,23.61,34.98,47.22,34.98"
			/>
		
			<path style="clip-path:url(#SVGID_00000138575464390134449560000005250654658760973452_);fill:none;stroke:#FFFFFF;stroke-width:10;stroke-linecap:round;stroke-linejoin:round;stroke-miterlimit:10;" d="
			M4173.83,2244.45c23.59,0,23.59,34.98,47.18,34.98c23.59,0,23.59-34.98,47.18-34.98c23.6,0,23.6,34.98,47.19,34.98
			c23.6,0,23.6-34.98,47.21-34.98c23.6,0,23.6,34.98,47.19,34.98c23.61,0,23.61-34.98,47.22-34.98c23.61,0,23.61,34.98,47.23,34.98"
			/>
		
			<path style="clip-path:url(#SVGID_00000138575464390134449560000005250654658760973452_);fill:none;stroke:#FFFFFF;stroke-width:10;stroke-linecap:round;stroke-linejoin:round;stroke-miterlimit:10;" d="
			M1960.5,2773c23.59,0,23.59,34.98,47.18,34.98s23.59-34.98,47.18-34.98c23.6,0,23.6,34.98,47.19,34.98
			c23.6,0,23.6-34.98,47.21-34.98c23.6,0,23.6,34.98,47.19,34.98c23.61,0,23.61-34.98,47.22-34.98s23.61,34.98,47.22,34.98"/>
		<g style="clip-path:url(#SVGID_00000138575464390134449560000005250654658760973452_);">
			<line class="st25" x1="3633.79" y1="1538.93" x2="3678.5" y2="1583.64"/>
			<line class="st25" x1="3633.79" y1="1583.64" x2="3678.5" y2="1538.93"/>
		</g>
		<g style="clip-path:url(#SVGID_00000138575464390134449560000005250654658760973452_);">
			<line class="st25" x1="2742.91" y1="1011.6" x2="2787.61" y2="1056.31"/>
			<line class="st25" x1="2742.91" y1="1056.31" x2="2787.61" y2="1011.6"/>
		</g>
		<g style="clip-path:url(#SVGID_00000138575464390134449560000005250654658760973452_);">
			<line class="st25" x1="2356.87" y1="2534.57" x2="2401.58" y2="2579.28"/>
			<line class="st25" x1="2356.87" y1="2579.28" x2="2401.58" y2="2534.57"/>
		</g>
		<g style="clip-path:url(#SVGID_00000138575464390134449560000005250654658760973452_);">
			<path class="st26" d="M2623.65,2824.66c0,6.7-5.43,12.12-12.12,12.12c-6.7,0-12.12-5.43-12.12-12.12
				c0-6.7,5.43-12.12,12.12-12.12C2618.22,2812.53,2623.65,2817.96,2623.65,2824.66z"/>
			<path class="st26" d="M2694.46,2824.66c0,6.7-5.43,12.12-12.12,12.12c-6.7,0-12.12-5.43-12.12-12.12
				c0-6.7,5.43-12.12,12.12-12.12C2689.03,2812.53,2694.46,2817.96,2694.46,2824.66z"/>
			<path class="st26" d="M2765.26,2824.66c0,6.7-5.43,12.12-12.12,12.12c-6.7,0-12.12-5.43-12.12-12.12
				c0-6.7,5.43-12.12,12.12-12.12C2759.83,2812.53,2765.26,2817.96,2765.26,2824.66z"/>
			<path class="st26" d="M2836.07,2824.66c0,6.7-5.43,12.12-12.12,12.12c-6.7,0-12.12-5.43-12.12-12.12
				c0-6.7,5.43-12.12,12.12-12.12C2830.64,2812.53,2836.07,2817.96,2836.07,2824.66z"/>
			<path class="st26" d="M2906.87,2824.66c0,6.7-5.43,12.12-12.12,12.12s-12.12-5.43-12.12-12.12c0-6.7,5.43-12.12,12.12-12.12
				S2906.87,2817.96,2906.87,2824.66z"/>
			<path class="st26" d="M2977.68,2824.66c0,6.7-5.43,12.12-12.12,12.12c-6.7,0-12.12-5.43-12.12-12.12
				c0-6.7,5.43-12.12,12.12-12.12C2972.25,2812.53,2977.68,2817.96,2977.68,2824.66z"/>
			<path class="st26" d="M3048.48,2824.66c0,6.7-5.43,12.12-12.12,12.12c-6.7,0-12.12-5.43-12.12-12.12
				c0-6.7,5.43-12.12,12.12-12.12C3043.05,2812.53,3048.48,2817.96,3048.48,2824.66z"/>
			<path class="st26" d="M3119.29,2824.66c0,6.7-5.43,12.12-12.12,12.12s-12.12-5.43-12.12-12.12c0-6.7,5.43-12.12,12.12-12.12
				S3119.29,2817.96,3119.29,2824.66z"/>
			<path class="st26" d="M2623.65,2895.46c0,6.7-5.43,12.12-12.12,12.12c-6.7,0-12.12-5.43-12.12-12.12s5.43-12.12,12.12-12.12
				C2618.22,2883.34,2623.65,2888.76,2623.65,2895.46z"/>
			<path class="st26" d="M2694.46,2895.46c0,6.7-5.43,12.12-12.12,12.12c-6.7,0-12.12-5.43-12.12-12.12s5.43-12.12,12.12-12.12
				C2689.03,2883.34,2694.46,2888.76,2694.46,2895.46z"/>
			<path class="st26" d="M2765.26,2895.46c0,6.7-5.43,12.12-12.12,12.12c-6.7,0-12.12-5.43-12.12-12.12s5.43-12.12,12.12-12.12
				C2759.83,2883.34,2765.26,2888.76,2765.26,2895.46z"/>
			<path class="st26" d="M2836.07,2895.46c0,6.7-5.43,12.12-12.12,12.12c-6.7,0-12.12-5.43-12.12-12.12s5.43-12.12,12.12-12.12
				C2830.64,2883.34,2836.07,2888.76,2836.07,2895.46z"/>
			<path class="st26" d="M2906.87,2895.46c0,6.7-5.43,12.12-12.12,12.12s-12.12-5.43-12.12-12.12s5.43-12.12,12.12-12.12
				S2906.87,2888.76,2906.87,2895.46z"/>
			<path class="st26" d="M2977.68,2895.46c0,6.7-5.43,12.12-12.12,12.12c-6.7,0-12.12-5.43-12.12-12.12s5.43-12.12,12.12-12.12
				C2972.25,2883.34,2977.68,2888.76,2977.68,2895.46z"/>
			<path class="st26" d="M3048.48,2895.46c0,6.7-5.43,12.12-12.12,12.12c-6.7,0-12.12-5.43-12.12-12.12s5.43-12.12,12.12-12.12
				C3043.05,2883.34,3048.48,2888.76,3048.48,2895.46z"/>
			<path class="st26" d="M3119.29,2895.46c0,6.7-5.43,12.12-12.12,12.12s-12.12-5.43-12.12-12.12s5.43-12.12,12.12-12.12
				S3119.29,2888.76,3119.29,2895.46z"/>
			<path class="st26" d="M2623.65,2966.27c0,6.7-5.43,12.12-12.12,12.12c-6.7,0-12.12-5.43-12.12-12.12s5.43-12.12,12.12-12.12
				C2618.22,2954.14,2623.65,2959.57,2623.65,2966.27z"/>
			<path class="st26" d="M2694.46,2966.27c0,6.7-5.43,12.12-12.12,12.12c-6.7,0-12.12-5.43-12.12-12.12s5.43-12.12,12.12-12.12
				C2689.03,2954.14,2694.46,2959.57,2694.46,2966.27z"/>
			<path class="st26" d="M2765.26,2966.27c0,6.7-5.43,12.12-12.12,12.12c-6.7,0-12.12-5.43-12.12-12.12s5.43-12.12,12.12-12.12
				C2759.83,2954.14,2765.26,2959.57,2765.26,2966.27z"/>
			<path class="st26" d="M2836.07,2966.27c0,6.7-5.43,12.12-12.12,12.12c-6.7,0-12.12-5.43-12.12-12.12s5.43-12.12,12.12-12.12
				C2830.64,2954.14,2836.07,2959.57,2836.07,2966.27z"/>
			<path class="st26" d="M2906.87,2966.27c0,6.7-5.43,12.12-12.12,12.12s-12.12-5.43-12.12-12.12s5.43-12.12,12.12-12.12
				S2906.87,2959.57,2906.87,2966.27z"/>
			<path class="st26" d="M2977.68,2966.27c0,6.7-5.43,12.12-12.12,12.12c-6.7,0-12.12-5.43-12.12-12.12s5.43-12.12,12.12-12.12
				C2972.25,2954.14,2977.68,2959.57,2977.68,2966.27z"/>
			<path class="st26" d="M3048.48,2966.27c0,6.7-5.43,12.12-12.12,12.12c-6.7,0-12.12-5.43-12.12-12.12s5.43-12.12,12.12-12.12
				C3043.05,2954.14,3048.48,2959.57,3048.48,2966.27z"/>
			<path class="st26" d="M3119.29,2966.27c0,6.7-5.43,12.12-12.12,12.12s-12.12-5.43-12.12-12.12s5.43-12.12,12.12-12.12
				S3119.29,2959.57,3119.29,2966.27z"/>
			<path class="st26" d="M2623.65,3037.07c0,6.7-5.43,12.12-12.12,12.12c-6.7,0-12.12-5.43-12.12-12.12
				c0-6.7,5.43-12.12,12.12-12.12C2618.22,3024.95,2623.65,3030.38,2623.65,3037.07z"/>
			<path class="st26" d="M2694.46,3037.07c0,6.7-5.43,12.12-12.12,12.12c-6.7,0-12.12-5.43-12.12-12.12
				c0-6.7,5.43-12.12,12.12-12.12C2689.03,3024.95,2694.46,3030.38,2694.46,3037.07z"/>
			<path class="st26" d="M2765.26,3037.07c0,6.7-5.43,12.12-12.12,12.12c-6.7,0-12.12-5.43-12.12-12.12
				c0-6.7,5.43-12.12,12.12-12.12C2759.83,3024.95,2765.26,3030.38,2765.26,3037.07z"/>
			<path class="st26" d="M2836.07,3037.07c0,6.7-5.43,12.12-12.12,12.12c-6.7,0-12.12-5.43-12.12-12.12
				c0-6.7,5.43-12.12,12.12-12.12C2830.64,3024.95,2836.07,3030.38,2836.07,3037.07z"/>
			<path class="st26" d="M2906.87,3037.07c0,6.7-5.43,12.12-12.12,12.12s-12.12-5.43-12.12-12.12c0-6.7,5.43-12.12,12.12-12.12
				S2906.87,3030.38,2906.87,3037.07z"/>
			<path class="st26" d="M2977.68,3037.07c0,6.7-5.43,12.12-12.12,12.12c-6.7,0-12.12-5.43-12.12-12.12
				c0-6.7,5.43-12.12,12.12-12.12C2972.25,3024.95,2977.68,3030.38,2977.68,3037.07z"/>
			<path class="st26" d="M3048.48,3037.07c0,6.7-5.43,12.12-12.12,12.12c-6.7,0-12.12-5.43-12.12-12.12
				c0-6.7,5.43-12.12,12.12-12.12C3043.05,3024.95,3048.48,3030.38,3048.48,3037.07z"/>
			<path class="st26" d="M3119.29,3037.07c0,6.7-5.43,12.12-12.12,12.12s-12.12-5.43-12.12-12.12c0-6.7,5.43-12.12,12.12-12.12
				S3119.29,3030.38,3119.29,3037.07z"/>
			<path class="st26" d="M2623.65,3107.88c0,6.7-5.43,12.12-12.12,12.12c-6.7,0-12.12-5.43-12.12-12.12
				c0-6.7,5.43-12.12,12.12-12.12C2618.22,3095.75,2623.65,3101.18,2623.65,3107.88z"/>
			<path class="st26" d="M2694.46,3107.88c0,6.7-5.43,12.12-12.12,12.12c-6.7,0-12.12-5.43-12.12-12.12
				c0-6.7,5.43-12.12,12.12-12.12C2689.03,3095.75,2694.46,3101.18,2694.46,3107.88z"/>
			<path class="st26" d="M2765.26,3107.88c0,6.7-5.43,12.12-12.12,12.12c-6.7,0-12.12-5.43-12.12-12.12
				c0-6.7,5.43-12.12,12.12-12.12C2759.83,3095.75,2765.26,3101.18,2765.26,3107.88z"/>
			<path class="st26" d="M2836.07,3107.88c0,6.7-5.43,12.12-12.12,12.12c-6.7,0-12.12-5.43-12.12-12.12
				c0-6.7,5.43-12.12,12.12-12.12C2830.64,3095.75,2836.07,3101.18,2836.07,3107.88z"/>
			<path class="st26" d="M2906.87,3107.88c0,6.7-5.43,12.12-12.12,12.12s-12.12-5.43-12.12-12.12c0-6.7,5.43-12.12,12.12-12.12
				S2906.87,3101.18,2906.87,3107.88z"/>
			<path class="st26" d="M2977.68,3107.88c0,6.7-5.43,12.12-12.12,12.12c-6.7,0-12.12-5.43-12.12-12.12
				c0-6.7,5.43-12.12,12.12-12.12C2972.25,3095.75,2977.68,3101.18,2977.68,3107.88z"/>
			<path class="st26" d="M3048.48,3107.88c0,6.7-5.43,12.12-12.12,12.12c-6.7,0-12.12-5.43-12.12-12.12
				c0-6.7,5.43-12.12,12.12-12.12C3043.05,3095.75,3048.48,3101.18,3048.48,3107.88z"/>
			<path class="st26" d="M3119.29,3107.88c0,6.7-5.43,12.12-12.12,12.12s-12.12-5.43-12.12-12.12c0-6.7,5.43-12.12,12.12-12.12
				S3119.29,3101.18,3119.29,3107.88z"/>
		</g>
		<g style="clip-path:url(#SVGID_00000138575464390134449560000005250654658760973452_);">
			<path class="st26" d="M3138.19,1426.38c0,6.7-5.43,12.12-12.12,12.12c-6.7,0-12.12-5.43-12.12-12.12
				c0-6.7,5.43-12.12,12.12-12.12C3132.76,1414.25,3138.19,1419.68,3138.19,1426.38z"/>
			<path class="st26" d="M3208.99,1426.38c0,6.7-5.43,12.12-12.12,12.12c-6.7,0-12.12-5.43-12.12-12.12
				c0-6.7,5.43-12.12,12.12-12.12C3203.56,1414.25,3208.99,1419.68,3208.99,1426.38z"/>
			<path class="st26" d="M3279.8,1426.38c0,6.7-5.43,12.12-12.12,12.12s-12.12-5.43-12.12-12.12c0-6.7,5.43-12.12,12.12-12.12
				S3279.8,1419.68,3279.8,1426.38z"/>
			<path class="st26" d="M3350.6,1426.38c0,6.7-5.43,12.12-12.12,12.12s-12.12-5.43-12.12-12.12c0-6.7,5.43-12.12,12.12-12.12
				S3350.6,1419.68,3350.6,1426.38z"/>
			<path class="st26" d="M3421.41,1426.38c0,6.7-5.43,12.12-12.12,12.12c-6.7,0-12.12-5.43-12.12-12.12
				c0-6.7,5.43-12.12,12.12-12.12C3415.98,1414.25,3421.41,1419.68,3421.41,1426.38z"/>
			<path class="st26" d="M3492.21,1426.38c0,6.7-5.43,12.12-12.12,12.12c-6.7,0-12.12-5.43-12.12-12.12
				c0-6.7,5.43-12.12,12.12-12.12C3486.78,1414.25,3492.21,1419.68,3492.21,1426.38z"/>
			<path class="st26" d="M3138.19,1497.18c0,6.7-5.43,12.12-12.12,12.12c-6.7,0-12.12-5.43-12.12-12.12
				c0-6.7,5.43-12.12,12.12-12.12C3132.76,1485.06,3138.19,1490.49,3138.19,1497.18z"/>
			<path class="st26" d="M3208.99,1497.18c0,6.7-5.43,12.12-12.12,12.12c-6.7,0-12.12-5.43-12.12-12.12
				c0-6.7,5.43-12.12,12.12-12.12C3203.56,1485.06,3208.99,1490.49,3208.99,1497.18z"/>
			<path class="st26" d="M3279.8,1497.18c0,6.7-5.43,12.12-12.12,12.12s-12.12-5.43-12.12-12.12c0-6.7,5.43-12.12,12.12-12.12
				S3279.8,1490.49,3279.8,1497.18z"/>
			<path class="st26" d="M3350.6,1497.18c0,6.7-5.43,12.12-12.12,12.12s-12.12-5.43-12.12-12.12c0-6.7,5.43-12.12,12.12-12.12
				S3350.6,1490.49,3350.6,1497.18z"/>
			<path class="st26" d="M3421.41,1497.18c0,6.7-5.43,12.12-12.12,12.12c-6.7,0-12.12-5.43-12.12-12.12
				c0-6.7,5.43-12.12,12.12-12.12C3415.98,1485.06,3421.41,1490.49,3421.41,1497.18z"/>
			<path class="st26" d="M3492.21,1497.18c0,6.7-5.43,12.12-12.12,12.12c-6.7,0-12.12-5.43-12.12-12.12
				c0-6.7,5.43-12.12,12.12-12.12C3486.78,1485.06,3492.21,1490.49,3492.21,1497.18z"/>
			<path class="st26" d="M3138.19,1567.99c0,6.7-5.43,12.12-12.12,12.12c-6.7,0-12.12-5.43-12.12-12.12s5.43-12.12,12.12-12.12
				C3132.76,1555.86,3138.19,1561.29,3138.19,1567.99z"/>
			<path class="st26" d="M3208.99,1567.99c0,6.7-5.43,12.12-12.12,12.12c-6.7,0-12.12-5.43-12.12-12.12s5.43-12.12,12.12-12.12
				C3203.56,1555.86,3208.99,1561.29,3208.99,1567.99z"/>
			<path class="st26" d="M3279.8,1567.99c0,6.7-5.43,12.12-12.12,12.12s-12.12-5.43-12.12-12.12s5.43-12.12,12.12-12.12
				S3279.8,1561.29,3279.8,1567.99z"/>
			<path class="st26" d="M3350.6,1567.99c0,6.7-5.43,12.12-12.12,12.12s-12.12-5.43-12.12-12.12s5.43-12.12,12.12-12.12
				S3350.6,1561.29,3350.6,1567.99z"/>
			<path class="st26" d="M3421.41,1567.99c0,6.7-5.43,12.12-12.12,12.12c-6.7,0-12.12-5.43-12.12-12.12s5.43-12.12,12.12-12.12
				C3415.98,1555.86,3421.41,1561.29,3421.41,1567.99z"/>
			<path class="st26" d="M3492.21,1567.99c0,6.7-5.43,12.12-12.12,12.12c-6.7,0-12.12-5.43-12.12-12.12s5.43-12.12,12.12-12.12
				C3486.78,1555.86,3492.21,1561.29,3492.21,1567.99z"/>
			<path class="st26" d="M3138.19,1638.79c0,6.7-5.43,12.12-12.12,12.12c-6.7,0-12.12-5.43-12.12-12.12
				c0-6.7,5.43-12.12,12.12-12.12C3132.76,1626.67,3138.19,1632.1,3138.19,1638.79z"/>
			<path class="st26" d="M3208.99,1638.79c0,6.7-5.43,12.12-12.12,12.12c-6.7,0-12.12-5.43-12.12-12.12
				c0-6.7,5.43-12.12,12.12-12.12C3203.56,1626.67,3208.99,1632.1,3208.99,1638.79z"/>
			<path class="st26" d="M3279.8,1638.79c0,6.7-5.43,12.12-12.12,12.12s-12.12-5.43-12.12-12.12c0-6.7,5.43-12.12,12.12-12.12
				S3279.8,1632.1,3279.8,1638.79z"/>
			<path class="st26" d="M3350.6,1638.79c0,6.7-5.43,12.12-12.12,12.12s-12.12-5.43-12.12-12.12c0-6.7,5.43-12.12,12.12-12.12
				S3350.6,1632.1,3350.6,1638.79z"/>
			<path class="st26" d="M3421.41,1638.79c0,6.7-5.43,12.12-12.12,12.12c-6.7,0-12.12-5.43-12.12-12.12
				c0-6.7,5.43-12.12,12.12-12.12C3415.98,1626.67,3421.41,1632.1,3421.41,1638.79z"/>
			<path class="st26" d="M3492.21,1638.79c0,6.7-5.43,12.12-12.12,12.12c-6.7,0-12.12-5.43-12.12-12.12
				c0-6.7,5.43-12.12,12.12-12.12C3486.78,1626.67,3492.21,1632.1,3492.21,1638.79z"/>
			<path class="st26" d="M3138.19,1709.6c0,6.7-5.43,12.12-12.12,12.12c-6.7,0-12.12-5.43-12.12-12.12c0-6.7,5.43-12.12,12.12-12.12
				C3132.76,1697.47,3138.19,1702.9,3138.19,1709.6z"/>
			<path class="st26" d="M3208.99,1709.6c0,6.7-5.43,12.12-12.12,12.12c-6.7,0-12.12-5.43-12.12-12.12c0-6.7,5.43-12.12,12.12-12.12
				C3203.56,1697.47,3208.99,1702.9,3208.99,1709.6z"/>
			<path class="st26" d="M3279.8,1709.6c0,6.7-5.43,12.12-12.12,12.12s-12.12-5.43-12.12-12.12c0-6.7,5.43-12.12,12.12-12.12
				S3279.8,1702.9,3279.8,1709.6z"/>
			<path class="st26" d="M3350.6,1709.6c0,6.7-5.43,12.12-12.12,12.12s-12.12-5.43-12.12-12.12c0-6.7,5.43-12.12,12.12-12.12
				S3350.6,1702.9,3350.6,1709.6z"/>
			<path class="st26" d="M3421.41,1709.6c0,6.7-5.43,12.12-12.12,12.12c-6.7,0-12.12-5.43-12.12-12.12c0-6.7,5.43-12.12,12.12-12.12
				C3415.98,1697.47,3421.41,1702.9,3421.41,1709.6z"/>
			<path class="st26" d="M3492.21,1709.6c0,6.7-5.43,12.12-12.12,12.12c-6.7,0-12.12-5.43-12.12-12.12c0-6.7,5.43-12.12,12.12-12.12
				C3486.78,1697.47,3492.21,1702.9,3492.21,1709.6z"/>
		</g>
		<g style="clip-path:url(#SVGID_00000138575464390134449560000005250654658760973452_);">
			<path class="st26" d="M4707.88,838.04c-6.7,0-12.12-5.43-12.12-12.12s5.43-12.12,12.12-12.12c6.7,0,12.12,5.43,12.12,12.12
				S4714.57,838.04,4707.88,838.04z"/>
			<path class="st26" d="M4707.88,908.84c-6.7,0-12.12-5.43-12.12-12.12c0-6.7,5.43-12.12,12.12-12.12c6.7,0,12.12,5.43,12.12,12.12
				C4720,903.42,4714.57,908.84,4707.88,908.84z"/>
			<path class="st26" d="M4707.88,979.65c-6.7,0-12.12-5.43-12.12-12.12c0-6.7,5.43-12.12,12.12-12.12c6.7,0,12.12,5.43,12.12,12.12
				C4720,974.22,4714.57,979.65,4707.88,979.65z"/>
			<path class="st26" d="M4707.88,1050.45c-6.7,0-12.12-5.43-12.12-12.12s5.43-12.12,12.12-12.12c6.7,0,12.12,5.43,12.12,12.12
				S4714.57,1050.45,4707.88,1050.45z"/>
			<path class="st26" d="M4707.88,1121.26c-6.7,0-12.12-5.43-12.12-12.12c0-6.7,5.43-12.12,12.12-12.12
				c6.7,0,12.12,5.43,12.12,12.12C4720,1115.83,4714.57,1121.26,4707.88,1121.26z"/>
			<path class="st26" d="M4707.88,1192.06c-6.7,0-12.12-5.43-12.12-12.12c0-6.7,5.43-12.12,12.12-12.12
				c6.7,0,12.12,5.43,12.12,12.12C4720,1186.64,4714.57,1192.06,4707.88,1192.06z"/>
			<path class="st26" d="M4707.88,1262.87c-6.7,0-12.12-5.43-12.12-12.12c0-6.7,5.43-12.12,12.12-12.12
				c6.7,0,12.12,5.43,12.12,12.12C4720,1257.44,4714.57,1262.87,4707.88,1262.87z"/>
			<path class="st26" d="M4707.88,1333.67c-6.7,0-12.12-5.43-12.12-12.12c0-6.7,5.43-12.12,12.12-12.12
				c6.7,0,12.12,5.43,12.12,12.12C4720,1328.25,4714.57,1333.67,4707.88,1333.67z"/>
			<path class="st26" d="M4637.07,838.04c-6.7,0-12.12-5.43-12.12-12.12s5.43-12.12,12.12-12.12c6.7,0,12.12,5.43,12.12,12.12
				S4643.77,838.04,4637.07,838.04z"/>
			<path class="st26" d="M4637.07,908.84c-6.7,0-12.12-5.43-12.12-12.12c0-6.7,5.43-12.12,12.12-12.12c6.7,0,12.12,5.43,12.12,12.12
				C4649.19,903.42,4643.77,908.84,4637.07,908.84z"/>
			<path class="st26" d="M4637.07,979.65c-6.7,0-12.12-5.43-12.12-12.12c0-6.7,5.43-12.12,12.12-12.12c6.7,0,12.12,5.43,12.12,12.12
				C4649.19,974.22,4643.77,979.65,4637.07,979.65z"/>
			<path class="st26" d="M4637.07,1050.45c-6.7,0-12.12-5.43-12.12-12.12s5.43-12.12,12.12-12.12c6.7,0,12.12,5.43,12.12,12.12
				S4643.77,1050.45,4637.07,1050.45z"/>
			<path class="st26" d="M4637.07,1121.26c-6.7,0-12.12-5.43-12.12-12.12c0-6.7,5.43-12.12,12.12-12.12
				c6.7,0,12.12,5.43,12.12,12.12C4649.19,1115.83,4643.77,1121.26,4637.07,1121.26z"/>
			<path class="st26" d="M4637.07,1192.06c-6.7,0-12.12-5.43-12.12-12.12c0-6.7,5.43-12.12,12.12-12.12
				c6.7,0,12.12,5.43,12.12,12.12C4649.19,1186.64,4643.77,1192.06,4637.07,1192.06z"/>
			<path class="st26" d="M4637.07,1262.87c-6.7,0-12.12-5.43-12.12-12.12c0-6.7,5.43-12.12,12.12-12.12
				c6.7,0,12.12,5.43,12.12,12.12C4649.19,1257.44,4643.77,1262.87,4637.07,1262.87z"/>
			<path class="st26" d="M4637.07,1333.67c-6.7,0-12.12-5.43-12.12-12.12c0-6.7,5.43-12.12,12.12-12.12
				c6.7,0,12.12,5.43,12.12,12.12C4649.19,1328.25,4643.77,1333.67,4637.07,1333.67z"/>
			<path class="st26" d="M4566.27,838.04c-6.7,0-12.12-5.43-12.12-12.12s5.43-12.12,12.12-12.12c6.7,0,12.12,5.43,12.12,12.12
				S4572.96,838.04,4566.27,838.04z"/>
			<path class="st26" d="M4566.27,908.84c-6.7,0-12.12-5.43-12.12-12.12c0-6.7,5.43-12.12,12.12-12.12c6.7,0,12.12,5.43,12.12,12.12
				C4578.39,903.42,4572.96,908.84,4566.27,908.84z"/>
			<path class="st26" d="M4566.27,979.65c-6.7,0-12.12-5.43-12.12-12.12c0-6.7,5.43-12.12,12.12-12.12c6.7,0,12.12,5.43,12.12,12.12
				C4578.39,974.22,4572.96,979.65,4566.27,979.65z"/>
			<path class="st26" d="M4566.27,1050.45c-6.7,0-12.12-5.43-12.12-12.12s5.43-12.12,12.12-12.12c6.7,0,12.12,5.43,12.12,12.12
				S4572.96,1050.45,4566.27,1050.45z"/>
			<path class="st26" d="M4566.27,1121.26c-6.7,0-12.12-5.43-12.12-12.12c0-6.7,5.43-12.12,12.12-12.12
				c6.7,0,12.12,5.43,12.12,12.12C4578.39,1115.83,4572.96,1121.26,4566.27,1121.26z"/>
			<path class="st26" d="M4566.27,1192.06c-6.7,0-12.12-5.43-12.12-12.12c0-6.7,5.43-12.12,12.12-12.12
				c6.7,0,12.12,5.43,12.12,12.12C4578.39,1186.64,4572.96,1192.06,4566.27,1192.06z"/>
			<path class="st26" d="M4566.27,1262.87c-6.7,0-12.12-5.43-12.12-12.12c0-6.7,5.43-12.12,12.12-12.12
				c6.7,0,12.12,5.43,12.12,12.12C4578.39,1257.44,4572.96,1262.87,4566.27,1262.87z"/>
			<path class="st26" d="M4566.27,1333.67c-6.7,0-12.12-5.43-12.12-12.12c0-6.7,5.43-12.12,12.12-12.12
				c6.7,0,12.12,5.43,12.12,12.12C4578.39,1328.25,4572.96,1333.67,4566.27,1333.67z"/>
			<path class="st26" d="M4495.46,838.04c-6.7,0-12.12-5.43-12.12-12.12s5.43-12.12,12.12-12.12c6.7,0,12.12,5.43,12.12,12.12
				S4502.16,838.04,4495.46,838.04z"/>
			<path class="st26" d="M4495.46,908.84c-6.7,0-12.12-5.43-12.12-12.12c0-6.7,5.43-12.12,12.12-12.12c6.7,0,12.12,5.43,12.12,12.12
				C4507.58,903.42,4502.16,908.84,4495.46,908.84z"/>
			<path class="st26" d="M4495.46,979.65c-6.7,0-12.12-5.43-12.12-12.12c0-6.7,5.43-12.12,12.12-12.12c6.7,0,12.12,5.43,12.12,12.12
				C4507.58,974.22,4502.16,979.65,4495.46,979.65z"/>
			<path class="st26" d="M4495.46,1050.45c-6.7,0-12.12-5.43-12.12-12.12s5.43-12.12,12.12-12.12c6.7,0,12.12,5.43,12.12,12.12
				S4502.16,1050.45,4495.46,1050.45z"/>
			<path class="st26" d="M4495.46,1121.26c-6.7,0-12.12-5.43-12.12-12.12c0-6.7,5.43-12.12,12.12-12.12
				c6.7,0,12.12,5.43,12.12,12.12C4507.58,1115.83,4502.16,1121.26,4495.46,1121.26z"/>
			<path class="st26" d="M4495.46,1192.06c-6.7,0-12.12-5.43-12.12-12.12c0-6.7,5.43-12.12,12.12-12.12
				c6.7,0,12.12,5.43,12.12,12.12C4507.58,1186.64,4502.16,1192.06,4495.46,1192.06z"/>
			<path class="st26" d="M4495.46,1262.87c-6.7,0-12.12-5.43-12.12-12.12c0-6.7,5.43-12.12,12.12-12.12
				c6.7,0,12.12,5.43,12.12,12.12C4507.58,1257.44,4502.16,1262.87,4495.46,1262.87z"/>
			<path class="st26" d="M4495.46,1333.67c-6.7,0-12.12-5.43-12.12-12.12c0-6.7,5.43-12.12,12.12-12.12
				c6.7,0,12.12,5.43,12.12,12.12C4507.58,1328.25,4502.16,1333.67,4495.46,1333.67z"/>
			<path class="st26" d="M4424.66,838.04c-6.7,0-12.12-5.43-12.12-12.12s5.43-12.12,12.12-12.12c6.7,0,12.12,5.43,12.12,12.12
				S4431.35,838.04,4424.66,838.04z"/>
			<path class="st26" d="M4424.66,908.84c-6.7,0-12.12-5.43-12.12-12.12c0-6.7,5.43-12.12,12.12-12.12c6.7,0,12.12,5.43,12.12,12.12
				C4436.78,903.42,4431.35,908.84,4424.66,908.84z"/>
			<path class="st26" d="M4424.66,979.65c-6.7,0-12.12-5.43-12.12-12.12c0-6.7,5.43-12.12,12.12-12.12c6.7,0,12.12,5.43,12.12,12.12
				C4436.78,974.22,4431.35,979.65,4424.66,979.65z"/>
			<path class="st26" d="M4424.66,1050.45c-6.7,0-12.12-5.43-12.12-12.12s5.43-12.12,12.12-12.12c6.7,0,12.12,5.43,12.12,12.12
				S4431.35,1050.45,4424.66,1050.45z"/>
			<path class="st26" d="M4424.66,1121.26c-6.7,0-12.12-5.43-12.12-12.12c0-6.7,5.43-12.12,12.12-12.12
				c6.7,0,12.12,5.43,12.12,12.12C4436.78,1115.83,4431.35,1121.26,4424.66,1121.26z"/>
			<path class="st26" d="M4424.66,1192.06c-6.7,0-12.12-5.43-12.12-12.12c0-6.7,5.43-12.12,12.12-12.12
				c6.7,0,12.12,5.43,12.12,12.12C4436.78,1186.64,4431.35,1192.06,4424.66,1192.06z"/>
			<path class="st26" d="M4424.66,1262.87c-6.7,0-12.12-5.43-12.12-12.12c0-6.7,5.43-12.12,12.12-12.12
				c6.7,0,12.12,5.43,12.12,12.12C4436.78,1257.44,4431.35,1262.87,4424.66,1262.87z"/>
			<path class="st26" d="M4424.66,1333.67c-6.7,0-12.12-5.43-12.12-12.12c0-6.7,5.43-12.12,12.12-12.12
				c6.7,0,12.12,5.43,12.12,12.12C4436.78,1328.25,4431.35,1333.67,4424.66,1333.67z"/>
		</g>
		<g style="clip-path:url(#SVGID_00000138575464390134449560000005250654658760973452_);">
			<path class="st26" d="M375.34,104.25c-6.7,0-12.12-5.43-12.12-12.12S368.65,80,375.34,80c6.7,0,12.12,5.43,12.12,12.12
				S382.04,104.25,375.34,104.25z"/>
			<path class="st26" d="M375.34,175.05c-6.7,0-12.12-5.43-12.12-12.12c0-6.7,5.43-12.12,12.12-12.12c6.7,0,12.12,5.43,12.12,12.12
				C387.47,169.63,382.04,175.05,375.34,175.05z"/>
			<path class="st26" d="M375.34,245.86c-6.7,0-12.12-5.43-12.12-12.12c0-6.7,5.43-12.12,12.12-12.12c6.7,0,12.12,5.43,12.12,12.12
				C387.47,240.43,382.04,245.86,375.34,245.86z"/>
			<path class="st26" d="M375.34,316.66c-6.7,0-12.12-5.43-12.12-12.12s5.43-12.12,12.12-12.12c6.7,0,12.12,5.43,12.12,12.12
				S382.04,316.66,375.34,316.66z"/>
			<path class="st26" d="M375.34,387.47c-6.7,0-12.12-5.43-12.12-12.12c0-6.7,5.43-12.12,12.12-12.12c6.7,0,12.12,5.43,12.12,12.12
				C387.47,382.04,382.04,387.47,375.34,387.47z"/>
			<path class="st26" d="M375.34,458.27c-6.7,0-12.12-5.43-12.12-12.12s5.43-12.12,12.12-12.12c6.7,0,12.12,5.43,12.12,12.12
				S382.04,458.27,375.34,458.27z"/>
			<path class="st26" d="M375.34,529.08c-6.7,0-12.12-5.43-12.12-12.12c0-6.7,5.43-12.12,12.12-12.12c6.7,0,12.12,5.43,12.12,12.12
				C387.47,523.65,382.04,529.08,375.34,529.08z"/>
			<path class="st26" d="M375.34,599.88c-6.7,0-12.12-5.43-12.12-12.12c0-6.7,5.43-12.12,12.12-12.12c6.7,0,12.12,5.43,12.12,12.12
				C387.47,594.46,382.04,599.88,375.34,599.88z"/>
			<path class="st26" d="M304.54,104.25c-6.7,0-12.12-5.43-12.12-12.12S297.84,80,304.54,80c6.7,0,12.12,5.43,12.12,12.12
				S311.24,104.25,304.54,104.25z"/>
			<path class="st26" d="M304.54,175.05c-6.7,0-12.12-5.43-12.12-12.12c0-6.7,5.43-12.12,12.12-12.12c6.7,0,12.12,5.43,12.12,12.12
				C316.66,169.63,311.24,175.05,304.54,175.05z"/>
			<path class="st26" d="M304.54,245.86c-6.7,0-12.12-5.43-12.12-12.12c0-6.7,5.43-12.12,12.12-12.12c6.7,0,12.12,5.43,12.12,12.12
				C316.66,240.43,311.24,245.86,304.54,245.86z"/>
			<path class="st26" d="M304.54,316.66c-6.7,0-12.12-5.43-12.12-12.12s5.43-12.12,12.12-12.12c6.7,0,12.12,5.43,12.12,12.12
				S311.24,316.66,304.54,316.66z"/>
			<path class="st26" d="M304.54,387.47c-6.7,0-12.12-5.43-12.12-12.12c0-6.7,5.43-12.12,12.12-12.12c6.7,0,12.12,5.43,12.12,12.12
				C316.66,382.04,311.24,387.47,304.54,387.47z"/>
			<path class="st26" d="M304.54,458.27c-6.7,0-12.12-5.43-12.12-12.12s5.43-12.12,12.12-12.12c6.7,0,12.12,5.43,12.12,12.12
				S311.24,458.27,304.54,458.27z"/>
			<path class="st26" d="M304.54,529.08c-6.7,0-12.12-5.43-12.12-12.12c0-6.7,5.43-12.12,12.12-12.12c6.7,0,12.12,5.43,12.12,12.12
				C316.66,523.65,311.24,529.08,304.54,529.08z"/>
			<path class="st26" d="M304.54,599.88c-6.7,0-12.12-5.43-12.12-12.12c0-6.7,5.43-12.12,12.12-12.12c6.7,0,12.12,5.43,12.12,12.12
				C316.66,594.46,311.24,599.88,304.54,599.88z"/>
			<path class="st26" d="M233.73,104.25c-6.7,0-12.12-5.43-12.12-12.12S227.04,80,233.73,80c6.7,0,12.12,5.43,12.12,12.12
				S240.43,104.25,233.73,104.25z"/>
			<path class="st26" d="M233.73,175.05c-6.7,0-12.12-5.43-12.12-12.12c0-6.7,5.43-12.12,12.12-12.12c6.7,0,12.12,5.43,12.12,12.12
				C245.86,169.63,240.43,175.05,233.73,175.05z"/>
			<path class="st26" d="M233.73,245.86c-6.7,0-12.12-5.43-12.12-12.12c0-6.7,5.43-12.12,12.12-12.12c6.7,0,12.12,5.43,12.12,12.12
				C245.86,240.43,240.43,245.86,233.73,245.86z"/>
			<path class="st26" d="M233.73,316.66c-6.7,0-12.12-5.43-12.12-12.12s5.43-12.12,12.12-12.12c6.7,0,12.12,5.43,12.12,12.12
				S240.43,316.66,233.73,316.66z"/>
			<path class="st26" d="M233.73,387.47c-6.7,0-12.12-5.43-12.12-12.12c0-6.7,5.43-12.12,12.12-12.12c6.7,0,12.12,5.43,12.12,12.12
				C245.86,382.04,240.43,387.47,233.73,387.47z"/>
			<path class="st26" d="M233.73,458.27c-6.7,0-12.12-5.43-12.12-12.12s5.43-12.12,12.12-12.12c6.7,0,12.12,5.43,12.12,12.12
				S240.43,458.27,233.73,458.27z"/>
			<path class="st26" d="M233.73,529.08c-6.7,0-12.12-5.43-12.12-12.12c0-6.7,5.43-12.12,12.12-12.12c6.7,0,12.12,5.43,12.12,12.12
				C245.86,523.65,240.43,529.08,233.73,529.08z"/>
			<path class="st26" d="M233.73,599.88c-6.7,0-12.12-5.43-12.12-12.12c0-6.7,5.43-12.12,12.12-12.12c6.7,0,12.12,5.43,12.12,12.12
				C245.86,594.46,240.43,599.88,233.73,599.88z"/>
			<path class="st26" d="M162.93,104.25c-6.7,0-12.12-5.43-12.12-12.12S156.23,80,162.93,80c6.7,0,12.12,5.43,12.12,12.12
				S169.62,104.25,162.93,104.25z"/>
			<path class="st26" d="M162.93,175.05c-6.7,0-12.12-5.43-12.12-12.12c0-6.7,5.43-12.12,12.12-12.12c6.7,0,12.12,5.43,12.12,12.12
				C175.05,169.63,169.62,175.05,162.93,175.05z"/>
			<path class="st26" d="M162.93,245.86c-6.7,0-12.12-5.43-12.12-12.12c0-6.7,5.43-12.12,12.12-12.12c6.7,0,12.12,5.43,12.12,12.12
				C175.05,240.43,169.62,245.86,162.93,245.86z"/>
			<path class="st26" d="M162.93,316.66c-6.7,0-12.12-5.43-12.12-12.12s5.43-12.12,12.12-12.12c6.7,0,12.12,5.43,12.12,12.12
				S169.62,316.66,162.93,316.66z"/>
			<path class="st26" d="M162.93,387.47c-6.7,0-12.12-5.43-12.12-12.12c0-6.7,5.43-12.12,12.12-12.12c6.7,0,12.12,5.43,12.12,12.12
				C175.05,382.04,169.62,387.47,162.93,387.47z"/>
			<path class="st26" d="M162.93,458.27c-6.7,0-12.12-5.43-12.12-12.12s5.43-12.12,12.12-12.12c6.7,0,12.12,5.43,12.12,12.12
				S169.62,458.27,162.93,458.27z"/>
			<path class="st26" d="M162.93,529.08c-6.7,0-12.12-5.43-12.12-12.12c0-6.7,5.43-12.12,12.12-12.12c6.7,0,12.12,5.43,12.12,12.12
				C175.05,523.65,169.62,529.08,162.93,529.08z"/>
			<path class="st26" d="M162.93,599.88c-6.7,0-12.12-5.43-12.12-12.12c0-6.7,5.43-12.12,12.12-12.12c6.7,0,12.12,5.43,12.12,12.12
				C175.05,594.46,169.62,599.88,162.93,599.88z"/>
			<path class="st26" d="M92.12,104.25c-6.7,0-12.12-5.43-12.12-12.12S85.43,80,92.12,80c6.7,0,12.12,5.43,12.12,12.12
				S98.82,104.25,92.12,104.25z"/>
			<path class="st26" d="M92.12,175.05c-6.7,0-12.12-5.43-12.12-12.12c0-6.7,5.43-12.12,12.12-12.12c6.7,0,12.12,5.43,12.12,12.12
				C104.25,169.63,98.82,175.05,92.12,175.05z"/>
			<path class="st26" d="M92.12,245.86c-6.7,0-12.12-5.43-12.12-12.12c0-6.7,5.43-12.12,12.12-12.12c6.7,0,12.12,5.43,12.12,12.12
				C104.25,240.43,98.82,245.86,92.12,245.86z"/>
			<path class="st26" d="M92.12,316.66c-6.7,0-12.12-5.43-12.12-12.12s5.43-12.12,12.12-12.12c6.7,0,12.12,5.43,12.12,12.12
				S98.82,316.66,92.12,316.66z"/>
			<path class="st26" d="M92.12,387.47c-6.7,0-12.12-5.43-12.12-12.12c0-6.7,5.43-12.12,12.12-12.12c6.7,0,12.12,5.43,12.12,12.12
				C104.25,382.04,98.82,387.47,92.12,387.47z"/>
			<path class="st26" d="M92.12,458.27c-6.7,0-12.12-5.43-12.12-12.12s5.43-12.12,12.12-12.12c6.7,0,12.12,5.43,12.12,12.12
				S98.82,458.27,92.12,458.27z"/>
			<path class="st26" d="M92.12,529.08c-6.7,0-12.12-5.43-12.12-12.12c0-6.7,5.43-12.12,12.12-12.12c6.7,0,12.12,5.43,12.12,12.12
				C104.25,523.65,98.82,529.08,92.12,529.08z"/>
			<path class="st26" d="M92.12,599.88c-6.7,0-12.12-5.43-12.12-12.12c0-6.7,5.43-12.12,12.12-12.12c6.7,0,12.12,5.43,12.12,12.12
				C104.25,594.46,98.82,599.88,92.12,599.88z"/>
		</g>
		<g style="clip-path:url(#SVGID_00000138575464390134449560000005250654658760973452_);">
			<path class="st26" d="M4695.75,162.93c0-6.7,5.43-12.12,12.12-12.12c6.7,0,12.12,5.43,12.12,12.12c0,6.7-5.43,12.12-12.12,12.12
				C4701.18,175.05,4695.75,169.63,4695.75,162.93z"/>
			<path class="st26" d="M4624.95,162.93c0-6.7,5.43-12.12,12.12-12.12c6.7,0,12.12,5.43,12.12,12.12c0,6.7-5.43,12.12-12.12,12.12
				C4630.38,175.05,4624.95,169.63,4624.95,162.93z"/>
			<path class="st26" d="M4554.14,162.93c0-6.7,5.43-12.12,12.12-12.12c6.7,0,12.12,5.43,12.12,12.12c0,6.7-5.43,12.12-12.12,12.12
				C4559.57,175.05,4554.14,169.63,4554.14,162.93z"/>
			<path class="st26" d="M4483.34,162.93c0-6.7,5.43-12.12,12.12-12.12c6.7,0,12.12,5.43,12.12,12.12c0,6.7-5.43,12.12-12.12,12.12
				C4488.76,175.05,4483.34,169.63,4483.34,162.93z"/>
			<path class="st26" d="M4412.53,162.93c0-6.7,5.43-12.12,12.12-12.12s12.12,5.43,12.12,12.12c0,6.7-5.43,12.12-12.12,12.12
				S4412.53,169.63,4412.53,162.93z"/>
			<path class="st26" d="M4341.73,162.93c0-6.7,5.43-12.12,12.12-12.12s12.12,5.43,12.12,12.12c0,6.7-5.43,12.12-12.12,12.12
				S4341.73,169.63,4341.73,162.93z"/>
			<path class="st26" d="M4270.92,162.93c0-6.7,5.43-12.12,12.12-12.12s12.12,5.43,12.12,12.12c0,6.7-5.43,12.12-12.12,12.12
				S4270.92,169.63,4270.92,162.93z"/>
			<path class="st26" d="M4200.12,162.93c0-6.7,5.43-12.12,12.12-12.12s12.12,5.43,12.12,12.12c0,6.7-5.43,12.12-12.12,12.12
				S4200.12,169.63,4200.12,162.93z"/>
			<path class="st26" d="M4695.75,92.12c0-6.7,5.43-12.12,12.12-12.12c6.7,0,12.12,5.43,12.12,12.12s-5.43,12.12-12.12,12.12
				C4701.18,104.25,4695.75,98.82,4695.75,92.12z"/>
			<path class="st26" d="M4624.95,92.12c0-6.7,5.43-12.12,12.12-12.12c6.7,0,12.12,5.43,12.12,12.12s-5.43,12.12-12.12,12.12
				C4630.38,104.25,4624.95,98.82,4624.95,92.12z"/>
			<path class="st26" d="M4554.14,92.12c0-6.7,5.43-12.12,12.12-12.12c6.7,0,12.12,5.43,12.12,12.12s-5.43,12.12-12.12,12.12
				C4559.57,104.25,4554.14,98.82,4554.14,92.12z"/>
			<path class="st26" d="M4483.34,92.12c0-6.7,5.43-12.12,12.12-12.12c6.7,0,12.12,5.43,12.12,12.12s-5.43,12.12-12.12,12.12
				C4488.76,104.25,4483.34,98.82,4483.34,92.12z"/>
			<path class="st26" d="M4412.53,92.12c0-6.7,5.43-12.12,12.12-12.12s12.12,5.43,12.12,12.12s-5.43,12.12-12.12,12.12
				S4412.53,98.82,4412.53,92.12z"/>
			<path class="st26" d="M4341.73,92.12c0-6.7,5.43-12.12,12.12-12.12s12.12,5.43,12.12,12.12s-5.43,12.12-12.12,12.12
				S4341.73,98.82,4341.73,92.12z"/>
			<path class="st26" d="M4270.92,92.12c0-6.7,5.43-12.12,12.12-12.12s12.12,5.43,12.12,12.12s-5.43,12.12-12.12,12.12
				S4270.92,98.82,4270.92,92.12z"/>
			<path class="st26" d="M4200.12,92.12c0-6.7,5.43-12.12,12.12-12.12s12.12,5.43,12.12,12.12s-5.43,12.12-12.12,12.12
				S4200.12,98.82,4200.12,92.12z"/>
		</g>
		<g style="clip-path:url(#SVGID_00000138575464390134449560000005250654658760973452_);">
			<defs>
				<circle id="SVGID_00000003066486401418989960000005056143545756363914_" cx="3384.31" cy="2177" r="329.77"/>
			</defs>
			<clipPath id="SVGID_00000014630571311454485510000000655755743601435822_">
				<use xlink:href="#SVGID_00000003066486401418989960000005056143545756363914_"  style="overflow:visible;"/>
			</clipPath>
			<g style="clip-path:url(#SVGID_00000014630571311454485510000000655755743601435822_);">
				<line class="st28" x1="3059.18" y1="1620.46" x2="1914.69" y2="2764.95"/>
				<line class="st29" x1="3109.96" y1="1620.46" x2="1965.47" y2="2764.95"/>
				<line class="st30" x1="3160.75" y1="1620.46" x2="2016.26" y2="2764.95"/>
				<line class="st31" x1="3211.53" y1="1620.46" x2="2067.04" y2="2764.95"/>
				<line class="st32" x1="3262.31" y1="1620.46" x2="2117.82" y2="2764.95"/>
				<line class="st33" x1="3313.1" y1="1620.46" x2="2168.6" y2="2764.95"/>
				<line class="st34" x1="3363.88" y1="1620.46" x2="2219.39" y2="2764.95"/>
				<line class="st35" x1="3414.66" y1="1620.46" x2="2270.17" y2="2764.95"/>
				<line class="st36" x1="3465.44" y1="1620.46" x2="2320.95" y2="2764.95"/>
				<line class="st37" x1="3516.23" y1="1620.46" x2="2371.73" y2="2764.95"/>
				<line class="st38" x1="3567.01" y1="1620.46" x2="2422.52" y2="2764.95"/>
				<line class="st39" x1="3617.79" y1="1620.46" x2="2473.3" y2="2764.95"/>
				<line class="st40" x1="3668.57" y1="1620.46" x2="2524.08" y2="2764.95"/>
				<line class="st41" x1="3719.36" y1="1620.46" x2="2574.87" y2="2764.95"/>
				<line class="st42" x1="3770.14" y1="1620.46" x2="2625.65" y2="2764.95"/>
				<line class="st43" x1="3820.92" y1="1620.46" x2="2676.43" y2="2764.95"/>
				<line class="st44" x1="3871.71" y1="1620.46" x2="2727.21" y2="2764.95"/>
				<line class="st45" x1="3922.49" y1="1620.46" x2="2778" y2="2764.95"/>
				<line class="st46" x1="3973.27" y1="1620.46" x2="2828.78" y2="2764.95"/>
				<line class="st47" x1="4024.05" y1="1620.46" x2="2879.56" y2="2764.95"/>
				<line class="st48" x1="4074.84" y1="1620.46" x2="2930.34" y2="2764.95"/>
				<line class="st49" x1="4125.62" y1="1620.46" x2="2981.13" y2="2764.95"/>
				<line class="st50" x1="4176.4" y1="1620.46" x2="3031.91" y2="2764.95"/>
				<line class="st51" x1="4227.18" y1="1620.46" x2="3082.69" y2="2764.95"/>
				<line class="st52" x1="4277.97" y1="1620.46" x2="3133.48" y2="2764.95"/>
				<line class="st53" x1="4328.75" y1="1620.46" x2="3184.26" y2="2764.95"/>
				<line class="st54" x1="4379.53" y1="1620.46" x2="3235.04" y2="2764.95"/>
				<line class="st55" x1="4430.31" y1="1620.46" x2="3285.82" y2="2764.95"/>
				<line class="st56" x1="4481.1" y1="1620.46" x2="3336.61" y2="2764.95"/>
				<line class="st57" x1="4531.88" y1="1620.46" x2="3387.39" y2="2764.95"/>
				<line class="st58" x1="4582.66" y1="1620.46" x2="3438.17" y2="2764.95"/>
				<line class="st25" x1="4633.45" y1="1620.46" x2="3488.95" y2="2764.95"/>
			</g>
		</g>
		<g style="clip-path:url(#SVGID_00000138575464390134449560000005250654658760973452_);">
			<defs>
				<circle id="SVGID_00000158718933971228801280000017527045335536273792_" cx="1960.49" cy="1187.31" r="329.77"/>
			</defs>
			<clipPath id="SVGID_00000160187413389079603340000003184072756098512827_">
				<use xlink:href="#SVGID_00000158718933971228801280000017527045335536273792_"  style="overflow:visible;"/>
			</clipPath>
			<g style="clip-path:url(#SVGID_00000160187413389079603340000003184072756098512827_);">
				<line class="st28" x1="1635.36" y1="630.78" x2="490.87" y2="1775.27"/>
				<line class="st29" x1="1686.14" y1="630.78" x2="541.65" y2="1775.27"/>
				<line class="st30" x1="1736.93" y1="630.78" x2="592.44" y2="1775.27"/>
				<line class="st31" x1="1787.71" y1="630.78" x2="643.22" y2="1775.27"/>
				<line class="st32" x1="1838.49" y1="630.78" x2="694" y2="1775.27"/>
				<line class="st33" x1="1889.28" y1="630.78" x2="744.78" y2="1775.27"/>
				<line class="st34" x1="1940.06" y1="630.78" x2="795.57" y2="1775.27"/>
				<line class="st35" x1="1990.84" y1="630.78" x2="846.35" y2="1775.27"/>
				<line class="st36" x1="2041.62" y1="630.78" x2="897.13" y2="1775.27"/>
				<line class="st37" x1="2092.41" y1="630.78" x2="947.91" y2="1775.27"/>
				<line class="st38" x1="2143.19" y1="630.78" x2="998.7" y2="1775.27"/>
				<line class="st39" x1="2193.97" y1="630.78" x2="1049.48" y2="1775.27"/>
				<line class="st40" x1="2244.75" y1="630.78" x2="1100.26" y2="1775.27"/>
				<line class="st41" x1="2295.54" y1="630.78" x2="1151.05" y2="1775.27"/>
				<line class="st42" x1="2346.32" y1="630.78" x2="1201.83" y2="1775.27"/>
				<line class="st43" x1="2397.1" y1="630.78" x2="1252.61" y2="1775.27"/>
				<line class="st44" x1="2447.89" y1="630.78" x2="1303.39" y2="1775.27"/>
				<line class="st45" x1="2498.67" y1="630.78" x2="1354.18" y2="1775.27"/>
				<line class="st46" x1="2549.45" y1="630.78" x2="1404.96" y2="1775.27"/>
				<line class="st47" x1="2600.23" y1="630.78" x2="1455.74" y2="1775.27"/>
				<line class="st48" x1="2651.02" y1="630.78" x2="1506.52" y2="1775.27"/>
				<line class="st49" x1="2701.8" y1="630.78" x2="1557.31" y2="1775.27"/>
				<line class="st50" x1="2752.58" y1="630.78" x2="1608.09" y2="1775.27"/>
				<line class="st51" x1="2803.36" y1="630.78" x2="1658.87" y2="1775.27"/>
				<line class="st52" x1="2854.15" y1="630.78" x2="1709.66" y2="1775.27"/>
				<line class="st53" x1="2904.93" y1="630.78" x2="1760.44" y2="1775.27"/>
				<line class="st54" x1="2955.71" y1="630.78" x2="1811.22" y2="1775.27"/>
				<line class="st55" x1="3006.49" y1="630.78" x2="1862" y2="1775.27"/>
				<line class="st56" x1="3057.28" y1="630.78" x2="1912.79" y2="1775.27"/>
				<line class="st57" x1="3108.06" y1="630.78" x2="1963.57" y2="1775.27"/>
				<line class="st58" x1="3158.84" y1="630.78" x2="2014.35" y2="1775.27"/>
				<line class="st25" x1="3209.63" y1="630.78" x2="2065.13" y2="1775.27"/>
			</g>
		</g>
		<g style="clip-path:url(#SVGID_00000138575464390134449560000005250654658760973452_);">
			<defs>
				<circle id="SVGID_00000117646672928462979940000005555985651122088350_" cx="2806.67" cy="103.7" r="329.77"/>
			</defs>
			<clipPath id="SVGID_00000032630181260528369730000001904854170208243900_">
				<use xlink:href="#SVGID_00000117646672928462979940000005555985651122088350_"  style="overflow:visible;"/>
			</clipPath>
			<g style="clip-path:url(#SVGID_00000032630181260528369730000001904854170208243900_);">
				<line class="st28" x1="2481.54" y1="-452.84" x2="1337.04" y2="691.65"/>
				<line class="st29" x1="2532.32" y1="-452.84" x2="1387.83" y2="691.65"/>
				<line class="st30" x1="2583.1" y1="-452.84" x2="1438.61" y2="691.65"/>
				<line class="st31" x1="2633.88" y1="-452.84" x2="1489.39" y2="691.65"/>
				<line class="st32" x1="2684.67" y1="-452.84" x2="1540.17" y2="691.65"/>
				<line class="st33" x1="2735.45" y1="-452.84" x2="1590.96" y2="691.65"/>
				<line class="st34" x1="2786.23" y1="-452.84" x2="1641.74" y2="691.65"/>
				<line class="st35" x1="2837.01" y1="-452.84" x2="1692.52" y2="691.65"/>
				<line class="st36" x1="2887.8" y1="-452.84" x2="1743.31" y2="691.65"/>
				<line class="st37" x1="2938.58" y1="-452.84" x2="1794.09" y2="691.65"/>
				<line class="st38" x1="2989.36" y1="-452.84" x2="1844.87" y2="691.65"/>
				<line class="st39" x1="3040.15" y1="-452.84" x2="1895.65" y2="691.65"/>
				<line class="st40" x1="3090.93" y1="-452.84" x2="1946.44" y2="691.65"/>
				<line class="st41" x1="3141.71" y1="-452.84" x2="1997.22" y2="691.65"/>
				<line class="st42" x1="3192.49" y1="-452.84" x2="2048" y2="691.65"/>
				<line class="st43" x1="3243.28" y1="-452.84" x2="2098.78" y2="691.65"/>
				<line class="st44" x1="3294.06" y1="-452.84" x2="2149.57" y2="691.65"/>
				<line class="st45" x1="3344.84" y1="-452.84" x2="2200.35" y2="691.65"/>
				<line class="st46" x1="3395.62" y1="-452.84" x2="2251.13" y2="691.65"/>
				<line class="st47" x1="3446.41" y1="-452.84" x2="2301.92" y2="691.65"/>
				<line class="st48" x1="3497.19" y1="-452.84" x2="2352.7" y2="691.65"/>
				<line class="st49" x1="3547.97" y1="-452.84" x2="2403.48" y2="691.65"/>
				<line class="st50" x1="3598.75" y1="-452.84" x2="2454.26" y2="691.65"/>
				<line class="st51" x1="3649.54" y1="-452.84" x2="2505.05" y2="691.65"/>
				<line class="st52" x1="3700.32" y1="-452.84" x2="2555.83" y2="691.65"/>
				<line class="st53" x1="3751.1" y1="-452.84" x2="2606.61" y2="691.65"/>
				<line class="st54" x1="3801.89" y1="-452.84" x2="2657.39" y2="691.65"/>
				<line class="st55" x1="3852.67" y1="-452.84" x2="2708.18" y2="691.65"/>
				<line class="st56" x1="3903.45" y1="-452.84" x2="2758.96" y2="691.65"/>
				<line class="st57" x1="3954.23" y1="-452.84" x2="2809.74" y2="691.65"/>
				<line class="st58" x1="4005.02" y1="-452.84" x2="2860.53" y2="691.65"/>
				<line class="st25" x1="4055.8" y1="-452.84" x2="2911.31" y2="691.65"/>
			</g>
		</g>
		<g style="clip-path:url(#SVGID_00000138575464390134449560000005250654658760973452_);">
			<defs>
				<circle id="SVGID_00000034776175617447398970000005804982689325993096_" cx="4592.95" cy="3018.57" r="487.05"/>
			</defs>
			<clipPath id="SVGID_00000115497339764751506230000012687324627114376106_">
				<use xlink:href="#SVGID_00000034776175617447398970000005804982689325993096_"  style="overflow:visible;"/>
			</clipPath>
			<g style="clip-path:url(#SVGID_00000115497339764751506230000012687324627114376106_);">
				<line class="st28" x1="4112.75" y1="2196.6" x2="2422.42" y2="3886.94"/>
				<line class="st29" x1="4187.75" y1="2196.6" x2="2497.42" y2="3886.94"/>
				<line class="st30" x1="4262.76" y1="2196.6" x2="2572.42" y2="3886.94"/>
				<line class="st31" x1="4337.76" y1="2196.6" x2="2647.43" y2="3886.94"/>
				<line class="st32" x1="4412.76" y1="2196.6" x2="2722.43" y2="3886.94"/>
				<line class="st33" x1="4487.76" y1="2196.6" x2="2797.43" y2="3886.94"/>
				<line class="st34" x1="4562.77" y1="2196.6" x2="2872.43" y2="3886.94"/>
				<line class="st35" x1="4637.77" y1="2196.6" x2="2947.44" y2="3886.94"/>
				<line class="st36" x1="4712.77" y1="2196.6" x2="3022.44" y2="3886.94"/>
				<line class="st37" x1="4787.77" y1="2196.6" x2="3097.44" y2="3886.94"/>
				<line class="st38" x1="4862.78" y1="2196.6" x2="3172.44" y2="3886.94"/>
				<line class="st39" x1="4937.78" y1="2196.6" x2="3247.45" y2="3886.94"/>
				<line class="st40" x1="5012.78" y1="2196.6" x2="3322.45" y2="3886.94"/>
				<line class="st41" x1="5087.78" y1="2196.6" x2="3397.45" y2="3886.94"/>
				<line class="st42" x1="5162.79" y1="2196.6" x2="3472.45" y2="3886.94"/>
				<line class="st43" x1="5237.79" y1="2196.6" x2="3547.46" y2="3886.94"/>
				<line class="st44" x1="5312.79" y1="2196.6" x2="3622.46" y2="3886.94"/>
				<line class="st45" x1="5387.79" y1="2196.6" x2="3697.46" y2="3886.94"/>
				<line class="st46" x1="5462.8" y1="2196.6" x2="3772.46" y2="3886.94"/>
				<line class="st47" x1="5537.8" y1="2196.6" x2="3847.47" y2="3886.94"/>
				<line class="st48" x1="5612.8" y1="2196.6" x2="3922.47" y2="3886.94"/>
				<line class="st49" x1="5687.8" y1="2196.6" x2="3997.47" y2="3886.94"/>
				<line class="st50" x1="5762.81" y1="2196.6" x2="4072.47" y2="3886.94"/>
				<line class="st51" x1="5837.81" y1="2196.6" x2="4147.48" y2="3886.94"/>
				<line class="st52" x1="5912.81" y1="2196.6" x2="4222.48" y2="3886.94"/>
				<line class="st53" x1="5987.81" y1="2196.6" x2="4297.48" y2="3886.94"/>
				<line class="st54" x1="6062.82" y1="2196.6" x2="4372.48" y2="3886.94"/>
				<line class="st55" x1="6137.82" y1="2196.6" x2="4447.49" y2="3886.94"/>
				<line class="st56" x1="6212.82" y1="2196.6" x2="4522.49" y2="3886.94"/>
				<line class="st57" x1="6287.82" y1="2196.6" x2="4597.49" y2="3886.94"/>
				<line class="st58" x1="6362.83" y1="2196.6" x2="4672.49" y2="3886.94"/>
				<line class="st25" x1="6437.83" y1="2196.6" x2="4747.5" y2="3886.94"/>
			</g>
		</g>
		
			<polygon style="clip-path:url(#SVGID_00000138575464390134449560000005250654658760973452_);fill:none;stroke:#FFFFFF;stroke-width:10;stroke-linecap:round;stroke-linejoin:round;stroke-miterlimit:10;" points="
			4485.61,1838.86 4485.61,1923.25 4558.69,1881.05 		"/>
		
			<polygon style="clip-path:url(#SVGID_00000138575464390134449560000005250654658760973452_);fill:none;stroke:#FFFFFF;stroke-width:10;stroke-linecap:round;stroke-linejoin:round;stroke-miterlimit:10;" points="
			3921.79,1034.47 3877.07,962.91 3837.46,1037.42 		"/>
		
			<polygon style="clip-path:url(#SVGID_00000138575464390134449560000005250654658760973452_);fill:none;stroke:#FFFFFF;stroke-width:10;stroke-linecap:round;stroke-linejoin:round;stroke-miterlimit:10;" points="
			1645.33,206.05 1600.61,134.49 1561,209 		"/>
		
			<polygon style="clip-path:url(#SVGID_00000138575464390134449560000005250654658760973452_);fill:none;stroke:#FFFFFF;stroke-width:10;stroke-linecap:round;stroke-linejoin:round;stroke-miterlimit:10;" points="
			4036.03,2565.83 3991.31,2494.27 3951.69,2568.78 		"/>
	</g>
	<path class="st26" d="M4800,0v22.75c0-7.59-0.03-15.18-0.1-22.75H4800z"/>
</g>
<g id="txt">
	<g>
		<g>
			<path class="st62" d="M2075.11,1631.62h-25.16l-10-26.02h-45.78l-9.45,26.02h-24.53l44.61-114.53h24.45L2075.11,1631.62z
				 M2032.53,1586.3l-15.78-42.5l-15.47,42.5H2032.53z"/>
			<path class="st62" d="M2087.46,1517.09h45.78c9.06,0,15.82,0.38,20.27,1.13c4.45,0.76,8.44,2.33,11.95,4.73
				c3.52,2.4,6.45,5.59,8.79,9.57c2.34,3.98,3.52,8.45,3.52,13.4c0,5.36-1.45,10.29-4.34,14.77c-2.89,4.48-6.81,7.84-11.76,10.08
				c6.98,2.03,12.34,5.5,16.09,10.39c3.75,4.9,5.62,10.65,5.62,17.27c0,5.21-1.21,10.27-3.63,15.2c-2.42,4.92-5.73,8.85-9.92,11.8
				c-4.19,2.94-9.36,4.75-15.51,5.43c-3.85,0.42-13.15,0.68-27.89,0.78h-38.98V1517.09z M2110.58,1536.15v26.48h15.16
				c9.01,0,14.61-0.13,16.8-0.39c3.96-0.47,7.07-1.84,9.34-4.1c2.27-2.27,3.4-5.25,3.4-8.95c0-3.54-0.98-6.42-2.93-8.63
				c-1.95-2.21-4.86-3.55-8.71-4.02c-2.29-0.26-8.88-0.39-19.77-0.39H2110.58z M2110.58,1581.69v30.62h21.41
				c8.33,0,13.62-0.23,15.86-0.7c3.44-0.62,6.24-2.15,8.4-4.57c2.16-2.42,3.24-5.66,3.24-9.73c0-3.44-0.83-6.35-2.5-8.75
				c-1.67-2.4-4.08-4.14-7.23-5.23c-3.15-1.09-9.99-1.64-20.51-1.64H2110.58z"/>
			<path class="st62" d="M2197.07,1594.35l22.5-2.19c1.35,7.55,4.1,13.1,8.24,16.64c4.14,3.54,9.73,5.31,16.76,5.31
				c7.45,0,13.06-1.58,16.84-4.73c3.78-3.15,5.66-6.84,5.66-11.05c0-2.71-0.79-5.01-2.38-6.91c-1.59-1.9-4.36-3.55-8.32-4.96
				c-2.71-0.94-8.88-2.6-18.52-5c-12.4-3.07-21.09-6.85-26.09-11.33c-7.03-6.3-10.55-13.98-10.55-23.05
				c0-5.83,1.65-11.29,4.96-16.37c3.31-5.08,8.07-8.95,14.3-11.6c6.22-2.66,13.74-3.98,22.54-3.98c14.38,0,25.2,3.15,32.46,9.45
				c7.27,6.3,11.08,14.71,11.45,25.23l-23.12,1.02c-0.99-5.89-3.11-10.12-6.37-12.7c-3.26-2.58-8.14-3.87-14.65-3.87
				c-6.72,0-11.98,1.38-15.78,4.14c-2.45,1.77-3.67,4.14-3.67,7.11c0,2.71,1.15,5.03,3.44,6.95c2.92,2.45,10,5,21.25,7.66
				c11.25,2.66,19.57,5.4,24.96,8.24c5.39,2.84,9.61,6.72,12.66,11.64c3.05,4.92,4.57,11,4.57,18.24c0,6.56-1.82,12.71-5.47,18.44
				c-3.65,5.73-8.8,9.99-15.47,12.77c-6.67,2.79-14.97,4.18-24.92,4.18c-14.48,0-25.6-3.35-33.36-10.04
				C2203.21,1616.92,2198.58,1607.16,2197.07,1594.35z"/>
			<path class="st62" d="M2335.43,1631.62v-95.16h-33.98v-19.38h91.02v19.38h-33.91v95.16H2335.43z"/>
			<path class="st62" d="M2407.46,1631.62v-114.53h48.67c12.24,0,21.13,1.03,26.68,3.09c5.55,2.06,9.99,5.72,13.32,10.98
				c3.33,5.26,5,11.28,5,18.05c0,8.59-2.53,15.69-7.58,21.29c-5.05,5.6-12.6,9.13-22.66,10.59c5,2.92,9.13,6.12,12.38,9.61
				c3.25,3.49,7.64,9.69,13.16,18.59l13.98,22.34h-27.66l-16.72-24.92c-5.94-8.91-10-14.52-12.19-16.84
				c-2.19-2.32-4.51-3.91-6.95-4.77c-2.45-0.86-6.33-1.29-11.64-1.29h-4.69v47.81H2407.46z M2430.58,1565.52h17.11
				c11.09,0,18.02-0.47,20.78-1.41c2.76-0.94,4.92-2.55,6.48-4.84c1.56-2.29,2.34-5.16,2.34-8.59c0-3.85-1.03-6.97-3.09-9.34
				c-2.06-2.37-4.96-3.87-8.71-4.49c-1.88-0.26-7.5-0.39-16.88-0.39h-18.05V1565.52z"/>
			<path class="st62" d="M2626.21,1631.62h-25.16l-10-26.02h-45.78l-9.45,26.02h-24.53l44.61-114.53h24.45L2626.21,1631.62z
				 M2583.63,1586.3l-15.78-42.5l-15.47,42.5H2583.63z"/>
			<path class="st62" d="M2711.75,1589.51l22.42,7.11c-3.44,12.5-9.15,21.78-17.15,27.85c-8,6.07-18.14,9.1-30.43,9.1
				c-15.21,0-27.71-5.2-37.5-15.59c-9.79-10.39-14.69-24.6-14.69-42.62c0-19.06,4.92-33.87,14.77-44.41
				c9.84-10.55,22.79-15.82,38.83-15.82c14.01,0,25.39,4.14,34.14,12.42c5.21,4.9,9.11,11.93,11.72,21.09l-22.89,5.47
				c-1.35-5.94-4.18-10.62-8.48-14.06s-9.52-5.16-15.66-5.16c-8.49,0-15.38,3.05-20.66,9.14c-5.29,6.09-7.93,15.96-7.93,29.61
				c0,14.48,2.6,24.79,7.81,30.94c5.21,6.15,11.98,9.22,20.31,9.22c6.15,0,11.43-1.95,15.86-5.86
				C2706.65,1604.04,2709.83,1597.89,2711.75,1589.51z"/>
			<path class="st62" d="M2779.8,1631.62v-95.16h-33.98v-19.38h91.02v19.38h-33.91v95.16H2779.8z"/>
		</g>
		<g>
			<path class="st63" d="M1960.49,1747.5v-80.17h30.08c6.12,0,11.04,0.81,14.74,2.43c3.7,1.62,6.6,4.12,8.7,7.49
				c2.1,3.37,3.14,6.9,3.14,10.58c0,3.43-0.93,6.65-2.79,9.68c-1.86,3.03-4.67,5.47-8.42,7.33c4.85,1.42,8.58,3.85,11.18,7.27
				c2.61,3.43,3.91,7.47,3.91,12.14c0,3.76-0.79,7.25-2.38,10.47c-1.59,3.23-3.55,5.71-5.88,7.46c-2.33,1.75-5.26,3.07-8.78,3.96
				c-3.52,0.89-7.83,1.34-12.93,1.34H1960.49z M1971.1,1701.02h17.34c4.7,0,8.08-0.31,10.12-0.93c2.7-0.8,4.73-2.13,6.1-3.99
				c1.37-1.86,2.05-4.19,2.05-7c0-2.66-0.64-5-1.91-7.03c-1.28-2.02-3.1-3.41-5.47-4.16c-2.37-0.75-6.44-1.12-12.2-1.12h-16.02
				V1701.02z M1971.1,1738.04h19.96c3.43,0,5.83-0.13,7.22-0.38c2.44-0.44,4.48-1.17,6.12-2.19c1.64-1.02,2.99-2.51,4.05-4.46
				c1.06-1.95,1.59-4.2,1.59-6.75c0-2.99-0.77-5.59-2.3-7.79c-1.53-2.21-3.66-3.75-6.37-4.65c-2.72-0.89-6.63-1.34-11.73-1.34
				h-18.54V1738.04z"/>
			<path class="st63" d="M2036.91,1747.5l30.79-80.17h11.43l32.81,80.17h-12.09l-9.35-24.28h-33.52l-8.8,24.28H2036.91z
				 M2060.04,1714.58h27.18l-8.37-22.2c-2.55-6.74-4.45-12.29-5.69-16.62c-1.02,5.14-2.46,10.25-4.32,15.31L2060.04,1714.58z"/>
			<path class="st63" d="M2187.7,1719.39l10.61,2.68c-2.22,8.71-6.23,15.36-12,19.93c-5.78,4.58-12.84,6.86-21.19,6.86
				c-8.64,0-15.67-1.76-21.08-5.28c-5.41-3.52-9.53-8.61-12.36-15.29c-2.83-6.67-4.24-13.84-4.24-21.49
				c0-8.35,1.59-15.63,4.79-21.85c3.19-6.22,7.73-10.94,13.62-14.16c5.89-3.23,12.37-4.84,19.44-4.84c8.02,0,14.77,2.04,20.23,6.12
				c5.47,4.08,9.28,9.83,11.43,17.23l-10.45,2.46c-1.86-5.83-4.56-10.08-8.09-12.74c-3.54-2.66-7.98-3.99-13.34-3.99
				c-6.16,0-11.31,1.48-15.45,4.43c-4.14,2.95-7.05,6.92-8.72,11.89c-1.68,4.98-2.52,10.11-2.52,15.39c0,6.82,0.99,12.77,2.98,17.86
				c1.99,5.09,5.08,8.89,9.27,11.4c4.19,2.52,8.73,3.77,13.62,3.77c5.94,0,10.97-1.71,15.09-5.14
				C2183.45,1731.22,2186.24,1726.14,2187.7,1719.39z"/>
			<path class="st63" d="M2221.02,1747.5v-80.17h10.61v39.76l39.81-39.76h14.38l-33.63,32.48l35.11,47.69h-14l-28.55-40.58
				l-13.12,12.8v27.78H2221.02z"/>
			<path class="st63" d="M2343.76,1716.06v-9.41l33.96-0.05v29.75c-5.21,4.16-10.59,7.28-16.13,9.38
				c-5.54,2.1-11.23,3.14-17.06,3.14c-7.88,0-15.03-1.69-21.47-5.06c-6.44-3.37-11.29-8.25-14.57-14.63
				c-3.28-6.38-4.92-13.51-4.92-21.38c0-7.8,1.63-15.08,4.89-21.85c3.26-6.76,7.96-11.79,14.08-15.07s13.18-4.92,21.16-4.92
				c5.8,0,11.04,0.94,15.72,2.82c4.68,1.88,8.36,4.49,11.02,7.85c2.66,3.35,4.68,7.73,6.07,13.12l-9.57,2.62
				c-1.2-4.08-2.7-7.29-4.48-9.62c-1.79-2.33-4.34-4.2-7.66-5.61c-3.32-1.4-7-2.11-11.05-2.11c-4.85,0-9.04,0.74-12.58,2.21
				c-3.54,1.48-6.39,3.42-8.56,5.82c-2.17,2.41-3.86,5.05-5.06,7.93c-2.04,4.96-3.06,10.34-3.06,16.13c0,7.15,1.23,13.12,3.69,17.94
				s6.04,8.39,10.75,10.72c4.7,2.33,9.7,3.5,14.98,3.5c4.59,0,9.08-0.88,13.45-2.65c4.38-1.77,7.69-3.65,9.95-5.66v-14.93H2343.76z"
				/>
			<path class="st63" d="M2403.61,1747.5v-80.17h35.55c7.15,0,12.58,0.72,16.3,2.16c3.72,1.44,6.69,3.98,8.91,7.63
				c2.22,3.65,3.34,7.67,3.34,12.09c0,5.69-1.84,10.48-5.52,14.38c-3.68,3.9-9.37,6.38-17.06,7.44c2.81,1.35,4.94,2.68,6.4,3.99
				c3.1,2.84,6.03,6.4,8.8,10.66l13.95,21.82h-13.34l-10.61-16.68c-3.1-4.81-5.65-8.49-7.66-11.05c-2.01-2.55-3.8-4.34-5.39-5.36
				c-1.59-1.02-3.2-1.73-4.84-2.13c-1.2-0.25-3.17-0.38-5.91-0.38h-12.3v35.6H2403.61z M2414.22,1702.71h22.8
				c4.85,0,8.64-0.5,11.38-1.5c2.73-1,4.81-2.61,6.23-4.81c1.42-2.21,2.13-4.6,2.13-7.19c0-3.79-1.38-6.91-4.13-9.35
				c-2.75-2.44-7.1-3.66-13.04-3.66h-25.38V1702.71z"/>
			<path class="st63" d="M2491.18,1708.45c0-13.31,3.57-23.72,10.72-31.25c7.15-7.53,16.37-11.29,27.67-11.29
				c7.4,0,14.07,1.77,20.02,5.3c5.94,3.54,10.47,8.47,13.59,14.79c3.12,6.33,4.68,13.5,4.68,21.52c0,8.13-1.64,15.4-4.92,21.82
				c-3.28,6.42-7.93,11.28-13.95,14.57c-6.02,3.3-12.5,4.95-19.47,4.95c-7.55,0-14.29-1.82-20.23-5.47
				c-5.94-3.65-10.45-8.62-13.51-14.93C2492.71,1722.16,2491.18,1715.49,2491.18,1708.45z M2502.12,1708.62
				c0,9.66,2.6,17.27,7.79,22.83c5.2,5.56,11.71,8.34,19.55,8.34c7.98,0,14.56-2.81,19.72-8.42c5.16-5.61,7.74-13.58,7.74-23.9
				c0-6.53-1.1-12.22-3.31-17.09c-2.21-4.87-5.43-8.64-9.68-11.32c-4.25-2.68-9.02-4.02-14.3-4.02c-7.51,0-13.97,2.58-19.39,7.74
				C2504.82,1687.94,2502.12,1696.55,2502.12,1708.62z"/>
			<path class="st63" d="M2644.21,1667.33h10.61v46.32c0,8.06-0.91,14.46-2.73,19.2c-1.82,4.74-5.11,8.6-9.87,11.57
				c-4.76,2.97-11,4.46-18.73,4.46c-7.51,0-13.65-1.29-18.43-3.88c-4.78-2.59-8.19-6.33-10.23-11.24c-2.04-4.9-3.06-11.6-3.06-20.1
				v-46.32h10.61v46.27c0,6.96,0.65,12.1,1.94,15.39c1.29,3.3,3.52,5.84,6.67,7.63c3.15,1.79,7.01,2.68,11.57,2.68
				c7.8,0,13.36-1.77,16.68-5.3c3.32-3.54,4.98-10.34,4.98-20.4V1667.33z"/>
			<path class="st63" d="M2682.46,1747.5v-80.17h10.88l42.11,62.95v-62.95h10.17v80.17h-10.88l-42.11-63v63H2682.46z"/>
			<path class="st63" d="M2773.53,1747.5v-80.17h27.62c6.23,0,10.99,0.38,14.27,1.15c4.59,1.06,8.51,2.97,11.76,5.74
				c4.23,3.57,7.39,8.14,9.49,13.7c2.1,5.56,3.15,11.91,3.15,19.06c0,6.09-0.71,11.48-2.13,16.19c-1.42,4.7-3.25,8.6-5.47,11.68
				c-2.23,3.08-4.66,5.51-7.3,7.27c-2.64,1.77-5.83,3.11-9.57,4.02c-3.74,0.91-8.03,1.37-12.88,1.37H2773.53z M2784.14,1738.04
				h17.12c5.29,0,9.43-0.49,12.44-1.48c3.01-0.98,5.4-2.37,7.19-4.16c2.52-2.52,4.47-5.9,5.88-10.14c1.4-4.25,2.11-9.4,2.11-15.45
				c0-8.39-1.38-14.83-4.13-19.33c-2.75-4.5-6.1-7.52-10.03-9.05c-2.84-1.09-7.42-1.64-13.73-1.64h-16.84V1738.04z"/>
		</g>
	</g>
	<circle class="st64" cx="2400" cy="1600" r="654.54"/>
</g>
</svg>
